<svg width="95" height="28" viewBox="0 0 95 28" fill="none" xmlns="http://www.w3.org/2000/svg">
<path d="M93.8745 24.4571C93.8745 25.9186 92.6758 27.1024 91.1931 27.1024H3.44504C1.9631 27.1024 0.760254 25.9186 0.760254 24.4571V3.36187C0.760254 1.90109 1.96315 0.713135 3.44504 0.713135H91.1924C92.6757 0.713135 93.8738 1.90109 93.8738 3.36187L93.8745 24.4571Z" fill="white"/>
<path d="M91.2777 27.8157H3.3577C1.5309 27.8157 0.0439453 26.3432 0.0439453 24.5319L0.0439453 3.28733C0.0439453 1.47464 1.5309 0 3.3577 0H91.277C93.1017 0 94.5907 1.47464 94.5907 3.28733V24.5319C94.5921 26.3432 93.1031 27.8157 91.2777 27.8157Z" fill="#A6A6A6"/>
<path d="M93.8745 24.4571C93.8745 25.9186 92.6758 27.1024 91.1931 27.1024H3.44504C1.9631 27.1024 0.760254 25.9186 0.760254 24.4571V3.36187C0.760254 1.90109 1.96315 0.713135 3.44504 0.713135H91.1924C92.6757 0.713135 93.8738 1.90109 93.8738 3.36187L93.8745 24.4571Z" fill="black"/>
<path d="M21.3197 13.7618C21.2997 11.5092 23.1411 10.4132 23.2253 10.3622C22.1824 8.82242 20.566 8.61204 19.998 8.59527C18.6404 8.45058 17.3235 9.41792 16.6319 9.41792C15.9266 9.41792 14.8616 8.60925 13.7138 8.63301C12.2368 8.65607 10.8551 9.52206 10.0972 10.8668C8.53326 13.6088 9.69963 17.6382 11.1981 19.8545C11.9476 20.9407 12.8235 22.152 13.9699 22.1093C15.0914 22.0632 15.5104 21.3859 16.8638 21.3859C18.2048 21.3859 18.5983 22.1093 19.7674 22.0821C20.9712 22.0632 21.729 20.9917 22.4523 19.8965C23.3185 18.653 23.6663 17.4271 23.6802 17.3642C23.6525 17.3544 21.3431 16.4612 21.3197 13.7618ZM19.111 7.13727C19.7142 6.37333 20.127 5.334 20.0124 4.2793C19.1393 4.31844 18.0475 4.89087 17.4186 5.63804C16.8623 6.29644 16.3654 7.37561 16.4938 8.39048C17.4746 8.46456 18.4816 7.88933 19.111 7.13727Z" fill="white"/>
<path d="M37.5715 21.9487H35.9834L35.1135 19.2257H32.0896L31.2609 21.9487H29.7148L32.7114 12.6784H34.5617L37.5715 21.9487ZM34.8513 18.0833L34.0646 15.6626C33.9814 15.4153 33.8247 14.833 33.5953 13.9162H33.5674C33.4751 14.3105 33.3275 14.8929 33.1254 15.6626L32.352 18.0833H34.8513ZM45.2625 18.5242C45.2625 19.6611 44.9527 20.5597 44.3324 21.2194C43.7772 21.8066 43.087 22.0999 42.2639 22.0999C41.375 22.0999 40.7359 21.7843 40.3478 21.1519V24.6592H38.8568V17.4612C38.8568 16.7471 38.838 16.0151 38.8017 15.2641H40.1129L40.1961 16.3237H40.224C40.7212 15.5254 41.4757 15.1262 42.4883 15.1262C43.2799 15.1262 43.9408 15.4375 44.4695 16.061C44.9974 16.6859 45.2625 17.5065 45.2625 18.5242ZM43.7436 18.5786C43.7436 17.9279 43.5967 17.3916 43.3016 16.9687C42.9792 16.5292 42.5464 16.3091 42.0037 16.3091C41.6359 16.3091 41.3016 16.4316 41.003 16.6734C40.7037 16.9172 40.5079 17.2355 40.4164 17.6298C40.3702 17.8137 40.3471 17.9635 40.3471 18.0819V19.1971C40.3471 19.6827 40.4968 20.093 40.7961 20.4288C41.0954 20.7631 41.4842 20.931 41.9625 20.931C42.5241 20.931 42.9612 20.7144 43.2737 20.2845C43.5869 19.8533 43.7436 19.2849 43.7436 18.5786ZM52.9807 18.5242C52.9807 19.6611 52.6709 20.5597 52.0506 21.2194C51.4947 21.8066 50.8052 22.0999 49.9814 22.0999C49.0926 22.0999 48.4534 21.7843 48.0653 21.1519V24.6592H46.5744V17.4612C46.5744 16.7471 46.5555 16.0151 46.5191 15.2641H47.8303L47.9135 16.3237H47.9415C48.438 15.5254 49.1926 15.1262 50.2058 15.1262C50.9967 15.1262 51.6575 15.4375 52.1877 16.061C52.715 16.6859 52.9807 17.5065 52.9807 18.5242ZM51.4611 18.5786C51.4611 17.9279 51.3136 17.3916 51.0184 16.9687C50.6961 16.5292 50.2646 16.3091 49.7219 16.3091C49.3541 16.3091 49.0198 16.4316 48.7198 16.6734C48.4205 16.9172 48.2255 17.2355 48.1338 17.6298C48.0884 17.8137 48.0639 17.9635 48.0639 18.0819V19.1971C48.0639 19.6827 48.2142 20.093 48.5121 20.4288C48.8114 20.7625 49.2003 20.931 49.68 20.931C50.2422 20.931 50.6792 20.7144 50.9912 20.2845C51.3045 19.8533 51.4611 19.2849 51.4611 18.5786ZM61.6101 19.3483C61.6101 20.1375 61.3332 20.7791 60.7829 21.2744C60.1772 21.815 59.3318 22.0859 58.2478 22.0859C57.2464 22.0859 56.4436 21.8937 55.838 21.5085L56.1828 20.2706C56.8367 20.6565 57.5548 20.8488 58.3367 20.8488C58.8989 20.8488 59.336 20.722 59.6479 20.4705C59.9604 20.2184 60.1185 19.8812 60.1185 19.4605C60.1185 19.0837 59.9877 18.768 59.7311 18.511C59.473 18.2547 59.0465 18.0158 58.4472 17.7963C56.8178 17.191 56.0024 16.3056 56.0024 15.1409C56.0024 14.3802 56.2905 13.7575 56.8654 13.2705C57.4402 12.7843 58.2025 12.5413 59.1507 12.5413C59.9976 12.5413 60.7032 12.6882 61.2633 12.9815L60.8892 14.1921C60.3619 13.9079 59.7667 13.7658 59.101 13.7658C58.5752 13.7658 58.1625 13.8947 57.8674 14.151C57.6192 14.3802 57.4933 14.6596 57.4933 14.9911C57.4933 15.3569 57.6367 15.6606 57.922 15.8989C58.1695 16.1182 58.6213 16.3572 59.2744 16.6136C60.0758 16.9354 60.6646 17.3102 61.0416 17.7407C61.4213 18.1711 61.6101 18.7081 61.6101 19.3483ZM66.5521 16.3787H64.9087V19.6242C64.9087 20.4496 65.1983 20.8613 65.7787 20.8613C66.0451 20.8613 66.2661 20.839 66.4409 20.7923L66.4822 21.9201C66.1885 22.0296 65.8017 22.0845 65.3227 22.0845C64.7339 22.0845 64.2738 21.9055 63.9416 21.5475C63.6108 21.1894 63.4444 20.5896 63.4444 19.7454V16.3759H62.4654V15.2614H63.4444V14.0374L64.9087 13.5972V15.2614H66.5521V16.3787ZM73.9521 18.5514C73.9521 19.5788 73.6571 20.4224 73.0682 21.0821C72.4521 21.7613 71.6325 22.0999 70.6108 22.0999C69.6248 22.0999 68.8409 21.7746 68.2563 21.1246C67.6717 20.4732 67.3794 19.6527 67.3794 18.6628C67.3794 17.6269 67.6815 16.7785 68.2836 16.1189C68.8871 15.4585 69.6997 15.1284 70.7213 15.1284C71.706 15.1284 72.4969 15.4543 73.0955 16.1049C73.6676 16.7361 73.9521 17.5511 73.9521 18.5514ZM72.4067 18.5855C72.4067 17.9732 72.2738 17.4479 72.0074 17.0084C71.6948 16.4776 71.2472 16.2122 70.6675 16.2122C70.0703 16.2122 69.6123 16.4776 69.3003 17.0084C69.0332 17.4479 68.9003 17.9822 68.9003 18.6133C68.9003 19.2264 69.0332 19.753 69.3003 20.1912C69.6227 20.722 70.0724 20.9874 70.6549 20.9874C71.2248 20.9874 71.6717 20.7164 71.9948 20.1779C72.269 19.7279 72.4067 19.1992 72.4067 18.5855ZM78.8005 16.5703C78.6529 16.543 78.4949 16.5291 78.3305 16.5291C77.806 16.5291 77.4004 16.7256 77.1152 17.1212C76.8676 17.4695 76.7431 17.9098 76.7431 18.4413V21.9486H75.2522V17.3693C75.2522 16.5995 75.2375 15.8974 75.2088 15.2648H76.5075L76.562 16.5437H76.6033C76.7613 16.1042 77.0089 15.7496 77.3488 15.4842C77.6809 15.2453 78.0396 15.1262 78.4264 15.1262C78.5641 15.1262 78.6886 15.1359 78.7991 15.1534L78.8005 16.5703ZM85.4683 18.2902C85.4683 18.5563 85.4508 18.7805 85.4137 18.9638H80.941C80.9578 19.6242 81.1746 20.1299 81.5899 20.4782C81.9669 20.7889 82.4543 20.9449 83.0529 20.9449C83.7151 20.9449 84.3192 20.8404 84.8627 20.6293L85.0962 21.6596C84.4613 21.9355 83.7116 22.0727 82.8466 22.0727C81.8061 22.0727 80.9892 21.7675 80.3948 21.1588C79.8018 20.5492 79.5047 19.73 79.5047 18.7039C79.5047 17.6966 79.7809 16.8573 80.334 16.1878C80.9131 15.4731 81.6955 15.1157 82.6802 15.1157C83.6473 15.1157 84.3794 15.4731 84.8767 16.1878C85.2704 16.7542 85.4683 17.4563 85.4683 18.2902ZM84.0466 17.9049C84.0571 17.464 83.9592 17.0844 83.7571 16.7632C83.499 16.3494 83.1018 16.1433 82.5696 16.1433C82.0822 16.1433 81.685 16.3446 81.3829 16.7486C81.1347 17.0697 80.9871 17.4556 80.9417 17.9036L84.0466 17.9049Z" fill="white"/>
<path d="M34.3046 6.60621H33.7511C33.7183 6.44767 33.661 6.30839 33.5792 6.18838C33.4988 6.06836 33.4006 5.96761 33.2846 5.88612C33.17 5.80315 33.0428 5.74092 32.9029 5.69943C32.763 5.65794 32.6172 5.6372 32.4654 5.6372C32.1887 5.6372 31.938 5.70684 31.7133 5.84611C31.4901 5.98539 31.3123 6.1906 31.1798 6.46174C31.0489 6.73289 30.9834 7.06552 30.9834 7.45964C30.9834 7.85376 31.0489 8.1864 31.1798 8.45754C31.3123 8.72868 31.4901 8.93389 31.7133 9.07317C31.938 9.21245 32.1887 9.28208 32.4654 9.28208C32.6172 9.28208 32.763 9.26134 32.9029 9.21985C33.0428 9.17837 33.17 9.11688 33.2846 9.03539C33.4006 8.95242 33.4988 8.85092 33.5792 8.73091C33.661 8.60941 33.7183 8.47013 33.7511 8.31308H34.3046C34.2629 8.5457 34.187 8.75387 34.0769 8.9376C33.9668 9.12132 33.8299 9.27764 33.6662 9.40654C33.5026 9.53397 33.3188 9.63102 33.115 9.69769C32.9126 9.76436 32.6961 9.7977 32.4654 9.7977C32.0756 9.7977 31.7289 9.70288 31.4254 9.51322C31.1218 9.32357 30.883 9.05391 30.7089 8.70424C30.5348 8.35457 30.4478 7.9397 30.4478 7.45964C30.4478 6.97958 30.5348 6.56472 30.7089 6.21505C30.883 5.86538 31.1218 5.59571 31.4254 5.40606C31.7289 5.21641 32.0756 5.12158 32.4654 5.12158C32.6961 5.12158 32.9126 5.15492 33.115 5.22159C33.3188 5.28827 33.5026 5.38606 33.6662 5.51496C33.8299 5.64239 33.9668 5.79796 34.0769 5.98169C34.187 6.16393 34.2629 6.3721 34.3046 6.60621Z" fill="white"/>
<path d="M35.1276 9.73547V6.32173H35.6544V7.80635H36.0026L37.2346 6.32173H37.9131L36.5293 7.96637L37.931 9.73547H37.2525L36.1275 8.2953H35.6544V9.73547H35.1276Z" fill="white"/>
<path d="M39.5123 9.81548C39.2951 9.81548 39.0979 9.77474 38.9208 9.69325C38.7438 9.61027 38.6032 9.491 38.499 9.33542C38.3948 9.17837 38.3428 8.98872 38.3428 8.76647C38.3428 8.57089 38.3815 8.41235 38.4588 8.29085C38.5362 8.16788 38.6396 8.07157 38.7691 8.00193C38.8985 7.93229 39.0414 7.88043 39.1976 7.84636C39.3553 7.8108 39.5138 7.78264 39.673 7.7619C39.8813 7.73523 40.0502 7.71523 40.1797 7.70189C40.3106 7.68708 40.4058 7.66263 40.4654 7.62855C40.5264 7.59447 40.5569 7.53521 40.5569 7.45075V7.43297C40.5569 7.21369 40.4966 7.0433 40.3761 6.9218C40.2571 6.8003 40.0763 6.73956 39.8337 6.73956C39.5823 6.73956 39.3851 6.79438 39.2423 6.90402C39.0994 7.01366 38.999 7.13071 38.9409 7.25517L38.441 7.07737C38.5303 6.86994 38.6493 6.70844 38.7981 6.59287C38.9484 6.47582 39.1121 6.39433 39.2891 6.3484C39.4677 6.30098 39.6433 6.27728 39.8159 6.27728C39.926 6.27728 40.0525 6.29061 40.1953 6.31728C40.3396 6.34247 40.4788 6.39507 40.6127 6.47508C40.7481 6.55509 40.8604 6.67584 40.9497 6.83735C41.039 6.99885 41.0836 7.21517 41.0836 7.48631V9.73547H40.5569V9.27319H40.5301C40.4944 9.34728 40.4349 9.42655 40.3515 9.511C40.2682 9.59546 40.1574 9.66732 40.019 9.72658C39.8806 9.78585 39.7117 9.81548 39.5123 9.81548ZM39.5927 9.34431C39.801 9.34431 39.9766 9.30357 40.1194 9.22208C40.2637 9.14059 40.3724 9.03539 40.4453 8.90648C40.5197 8.77758 40.5569 8.64201 40.5569 8.49977V8.01971C40.5346 8.04638 40.4855 8.07083 40.4096 8.09305C40.3352 8.1138 40.2489 8.13232 40.1507 8.14861C40.0539 8.16343 39.9595 8.17677 39.8672 8.18862C39.7764 8.19899 39.7028 8.20788 39.6462 8.21529C39.5093 8.23307 39.3814 8.26196 39.2623 8.30197C39.1448 8.34049 39.0496 8.39901 38.9766 8.47754C38.9052 8.55459 38.8695 8.65979 38.8695 8.79314C38.8695 8.97538 38.9372 9.11318 39.0726 9.20652C39.2095 9.29838 39.3829 9.34431 39.5927 9.34431Z" fill="white"/>
<path d="M44.6877 6.32173V9.73547H44.1609V6.32173H44.6877ZM44.4823 7.94859V8.43754C44.3633 8.48199 44.245 8.52125 44.1275 8.55533C44.0099 8.58793 43.8864 8.61386 43.757 8.63312C43.6275 8.6509 43.4854 8.65979 43.3307 8.65979C42.9423 8.65979 42.6306 8.55533 42.3955 8.34642C42.1618 8.1375 42.045 7.82413 42.045 7.4063V6.31284H42.5718V7.4063C42.5718 7.58114 42.6053 7.72486 42.6722 7.83747C42.7392 7.95007 42.8299 8.03379 42.9445 8.08861C43.0591 8.14343 43.1878 8.17084 43.3307 8.17084C43.5538 8.17084 43.7555 8.15084 43.9355 8.11083C44.117 8.06935 44.2993 8.01526 44.4823 7.94859Z" fill="white"/>
<path d="M46.663 9.81548C46.4457 9.81548 46.2486 9.77474 46.0715 9.69325C45.8944 9.61027 45.7538 9.491 45.6497 9.33542C45.5455 9.17837 45.4934 8.98872 45.4934 8.76647C45.4934 8.57089 45.5321 8.41235 45.6095 8.29085C45.6869 8.16788 45.7903 8.07157 45.9197 8.00193C46.0492 7.93229 46.192 7.88043 46.3483 7.84636C46.506 7.8108 46.6645 7.78264 46.8237 7.7619C47.032 7.73523 47.2009 7.71523 47.3303 7.70189C47.4613 7.68708 47.5565 7.66263 47.616 7.62855C47.677 7.59447 47.7075 7.53521 47.7075 7.45075V7.43297C47.7075 7.21369 47.6473 7.0433 47.5267 6.9218C47.4077 6.8003 47.2269 6.73956 46.9844 6.73956C46.7329 6.73956 46.5358 6.79438 46.3929 6.90402C46.2501 7.01366 46.1496 7.13071 46.0916 7.25517L45.5916 7.07737C45.6809 6.86994 45.7999 6.70844 45.9487 6.59287C46.099 6.47582 46.2627 6.39433 46.4398 6.3484C46.6183 6.30098 46.7939 6.27728 46.9665 6.27728C47.0766 6.27728 47.2031 6.29061 47.346 6.31728C47.4903 6.34247 47.6294 6.39507 47.7633 6.47508C47.8987 6.55509 48.0111 6.67584 48.1004 6.83735C48.1896 6.99885 48.2343 7.21517 48.2343 7.48631V9.73547H47.7075V9.27319H47.6807C47.645 9.34728 47.5855 9.42655 47.5022 9.511C47.4189 9.59546 47.308 9.66732 47.1696 9.72658C47.0312 9.78585 46.8624 9.81548 46.663 9.81548ZM46.7433 9.34431C46.9516 9.34431 47.1272 9.30357 47.2701 9.22208C47.4144 9.14059 47.523 9.03539 47.5959 8.90648C47.6703 8.77758 47.7075 8.64201 47.7075 8.49977V8.01971C47.6852 8.04638 47.6361 8.07083 47.5602 8.09305C47.4858 8.1138 47.3995 8.13232 47.3013 8.14861C47.2046 8.16343 47.1101 8.17677 47.0179 8.18862C46.9271 8.19899 46.8534 8.20788 46.7969 8.21529C46.66 8.23307 46.532 8.26196 46.413 8.30197C46.2954 8.34049 46.2002 8.39901 46.1273 8.47754C46.0559 8.55459 46.0202 8.65979 46.0202 8.79314C46.0202 8.97538 46.0879 9.11318 46.2233 9.20652C46.3602 9.29838 46.5335 9.34431 46.7433 9.34431Z" fill="white"/>
<path d="M48.7292 6.81068V6.32173H51.5147V6.81068H50.3898V9.73547H49.8631V6.81068H48.7292Z" fill="white"/>
<path d="M52.7384 7.55743H53.7204C54.1222 7.55743 54.4295 7.65893 54.6422 7.86191C54.855 8.0649 54.9614 8.32197 54.9614 8.63312C54.9614 8.83759 54.9138 9.02353 54.8186 9.19096C54.7233 9.35691 54.5835 9.48952 54.399 9.58879C54.2145 9.68658 53.9883 9.73547 53.7204 9.73547H52.2831V6.32173H52.8098V9.24652H53.7204C53.9288 9.24652 54.0999 9.1917 54.2338 9.08206C54.3677 8.97242 54.4347 8.83166 54.4347 8.65979C54.4347 8.47902 54.3677 8.3316 54.2338 8.21751C54.0999 8.10342 53.9288 8.04638 53.7204 8.04638H52.7384V7.55743Z" fill="white"/>
<path d="M57.531 9.73547V6.32173H58.9326C59.3017 6.32173 59.5948 6.4047 59.812 6.57065C60.0293 6.73659 60.1379 6.95588 60.1379 7.2285C60.1379 7.43594 60.0761 7.5967 59.9526 7.71078C59.8291 7.82339 59.6707 7.8997 59.4772 7.9397C59.6037 7.95748 59.7265 8.00193 59.8455 8.07305C59.966 8.14417 60.0657 8.24196 60.1446 8.36642C60.2235 8.4894 60.2629 8.64053 60.2629 8.81981C60.2629 8.99464 60.2183 9.15096 60.129 9.28875C60.0397 9.42655 59.9117 9.53545 59.7451 9.61546C59.5784 9.69547 59.379 9.73547 59.1469 9.73547H57.531ZM58.0309 9.25541H59.1469C59.3284 9.25541 59.4705 9.21245 59.5732 9.12651C59.6759 9.04057 59.7272 8.92352 59.7272 8.77536C59.7272 8.59904 59.6759 8.4605 59.5732 8.35975C59.4705 8.25752 59.3284 8.2064 59.1469 8.2064H58.0309V9.25541ZM58.0309 7.75301H58.9326C59.074 7.75301 59.1953 7.73375 59.2965 7.69523C59.3976 7.65522 59.475 7.59892 59.5286 7.52632C59.5836 7.45223 59.6112 7.36482 59.6112 7.26406C59.6112 7.12034 59.5509 7.00774 59.4304 6.92624C59.3098 6.84327 59.1439 6.80179 58.9326 6.80179H58.0309V7.75301Z" fill="white"/>
</svg>
