<svg width="182" height="56" viewBox="0 0 182 56" fill="none" xmlns="http://www.w3.org/2000/svg">
<rect x="1.05102" y="2.55108" width="178.898" height="52.898" rx="6.64898" fill="#F5F5F5" stroke="black" stroke-width="1.10204"/>
<path d="M41.1933 28.8502C41.151 24.5449 44.6693 22.447 44.8302 22.3492C42.8336 19.4083 39.7432 19.0092 38.657 18.9782C36.0615 18.7041 33.5457 20.5553 32.2235 20.5565C30.8751 20.5579 28.8376 19.0143 26.6434 19.0618C23.8198 19.1086 21.18 20.7662 19.7335 23.3376C16.7487 28.581 18.9859 36.2799 21.8547 40.513C23.2895 42.5874 24.9663 44.9009 27.1578 44.8173C29.3018 44.7272 30.1015 43.4318 32.689 43.4294C35.2527 43.427 36.0062 44.8089 38.2413 44.7547C40.5424 44.7163 41.9892 42.6671 43.3701 40.5725C45.0237 38.1945 45.6864 35.8509 45.7126 35.7306C45.6597 35.7119 41.2433 34.009 41.1933 28.8502ZM36.9588 16.1933C38.1106 14.7321 38.8978 12.745 38.6768 10.7294C37.0076 10.8058 34.9214 11.9018 33.7205 13.331C32.6584 14.5904 31.7103 16.6538 31.9575 18.5932C33.8327 18.733 35.7568 17.6317 36.9588 16.1933Z" fill="black"/>
<path d="M72.2778 42.4679L69.2418 42.4708L67.5736 37.2683L61.7929 37.2738L60.2135 42.4795L57.2578 42.4824L62.9693 24.7594L66.5068 24.7559L72.2778 42.4679ZM67.0704 35.0854L65.5619 30.4603C65.4024 29.9878 65.1018 28.8752 64.6614 27.1236H64.6081C64.4323 27.8774 64.1513 28.9907 63.7664 30.462L62.2923 35.0899L67.0704 35.0854ZM86.9745 35.909C86.9767 38.0818 86.3862 39.7998 85.2016 41.0618C84.1413 42.1851 82.822 42.747 81.2487 42.7483C79.5496 42.7501 78.3269 42.1481 77.5842 40.94L77.5901 47.6433L74.74 47.646L74.7268 33.8892C74.7253 32.5243 74.688 31.1253 74.617 29.6902L77.1239 29.6878L77.2849 31.7126H77.3383C78.2874 30.1859 79.7289 29.4216 81.6651 29.4197C83.1783 29.4182 84.442 30.0121 85.454 31.2028C86.4645 32.3961 86.9731 33.964 86.9745 35.909ZM84.071 36.0157C84.0696 34.7721 83.7878 33.7474 83.2229 32.9398C82.6061 32.1003 81.7778 31.6805 80.7409 31.6815C80.0377 31.6821 79.3989 31.917 78.8282 32.3795C78.2567 32.846 77.8828 33.4548 77.7086 34.2085C77.6208 34.56 77.5769 34.8463 77.5769 35.0727L77.5791 37.2042C77.5798 38.132 77.8667 38.916 78.4396 39.5573C79.0126 40.1957 79.756 40.5157 80.6707 40.5149C81.7441 40.5138 82.579 40.0992 83.1761 39.277C83.7739 38.4523 84.0725 37.3657 84.071 36.0157ZM101.73 35.8949C101.732 38.0676 101.142 39.7857 99.957 41.0477C98.8952 42.171 97.5774 42.7329 96.0027 42.7343C94.3036 42.736 93.0809 42.134 92.3374 40.9259L92.344 47.6291L89.4939 47.6319L89.4807 33.8751C89.4793 32.5102 89.4419 31.1111 89.371 29.6761L91.8779 29.6737L92.0389 31.6985H92.0923C93.0399 30.1718 94.4814 29.4075 96.419 29.4056C97.9308 29.4041 99.1945 29.998 100.209 31.1887C101.218 32.382 101.728 33.9499 101.73 35.8949ZM98.825 36.0015C98.8235 34.7582 98.5403 33.7333 97.9754 32.9257C97.3586 32.0861 96.5332 31.6663 95.4963 31.6674C94.7924 31.668 94.1543 31.9029 93.5806 32.3653C93.0092 32.832 92.6367 33.4406 92.4625 34.1944C92.3755 34.5459 92.3294 34.8321 92.3294 35.0586L92.3316 37.19C92.3323 38.1179 92.6206 38.9019 93.1906 39.5431C93.7636 40.1802 94.507 40.5016 95.4246 40.5007C96.4988 40.4997 97.3344 40.0851 97.9301 39.2628C98.5279 38.4383 98.8264 37.3516 98.825 36.0015ZM118.228 37.4542C118.23 38.9627 117.702 40.1892 116.651 41.1368C115.494 42.171 113.878 42.6906 111.806 42.6925C109.892 42.6944 108.357 42.3284 107.198 41.5932L107.855 39.2267C109.105 39.9631 110.479 40.3292 111.973 40.3279C113.048 40.3268 113.883 40.0837 114.48 39.6025C115.076 39.1201 115.378 38.4754 115.378 37.6712C115.377 36.951 115.126 36.3481 114.635 35.8574C114.141 35.3679 113.325 34.9122 112.179 34.4937C109.063 33.3398 107.503 31.6491 107.5 29.4232C107.499 27.9694 108.048 26.7787 109.147 25.847C110.245 24.9166 111.701 24.4507 113.515 24.449C115.133 24.4475 116.482 24.727 117.554 25.2865L116.841 27.601C115.833 27.0588 114.694 26.7883 113.422 26.7895C112.416 26.7903 111.628 27.0374 111.064 27.528C110.59 27.9665 110.35 28.5007 110.351 29.1343C110.351 29.8333 110.626 30.4135 111.172 30.8684C111.645 31.2871 112.509 31.743 113.758 32.2318C115.291 32.8454 116.417 33.5605 117.139 34.3826C117.865 35.2044 118.228 36.2307 118.228 37.4542ZM127.671 31.7696L124.529 31.7727L124.535 37.9753C124.537 39.553 125.091 40.3392 126.201 40.3381C126.71 40.3376 127.133 40.2947 127.466 40.2052L127.548 42.3605C126.986 42.5703 126.247 42.6759 125.331 42.677C124.206 42.678 123.326 42.3366 122.69 41.6529C122.057 40.9692 121.738 39.8232 121.736 38.2096L121.73 31.7699L119.858 31.7718L119.856 29.6417L121.728 29.6398L121.725 27.3007L124.524 26.4566L124.527 29.6372L127.669 29.6341L127.671 31.7696ZM141.822 35.9085C141.824 37.8722 141.261 39.485 140.136 40.7469C138.961 42.0461 137.394 42.6947 135.441 42.6966C133.556 42.6983 132.057 42.078 130.938 40.8369C129.819 39.593 129.259 38.0253 129.256 36.1335C129.255 34.1538 129.831 32.5317 130.98 31.2699C132.133 30.0066 133.686 29.3741 135.639 29.3722C137.521 29.3706 139.034 29.992 140.18 31.2345C141.274 32.4395 141.82 33.9967 141.822 35.9085ZM138.868 35.9766C138.866 34.8062 138.612 33.8027 138.101 32.9631C137.503 31.9492 136.647 31.4429 135.538 31.4439C134.397 31.4449 133.522 31.953 132.926 32.968C132.416 33.8086 132.163 34.83 132.164 36.0361C132.166 37.2077 132.42 38.2139 132.932 39.0511C133.549 40.065 134.409 40.5713 135.523 40.5703C136.612 40.5692 137.466 40.0505 138.083 39.0208C138.606 38.1602 138.868 37.1495 138.868 35.9766ZM151.087 32.1133C150.805 32.0615 150.503 32.0352 150.188 32.0355C149.186 32.0366 148.411 32.4128 147.866 33.1693C147.394 33.8355 147.156 34.6771 147.157 35.6929L147.164 42.3964L144.314 42.3989L144.305 33.6469C144.304 32.1757 144.274 30.8338 144.218 29.625L146.701 29.6226L146.808 32.0667H146.887C147.188 31.2264 147.66 30.5482 148.31 30.0404C148.944 29.5832 149.63 29.3547 150.369 29.354C150.632 29.3538 150.87 29.3722 151.082 29.4055L151.087 32.1133ZM163.837 35.3882C163.838 35.8968 163.805 36.3253 163.734 36.6758L155.184 36.6839C155.217 37.946 155.632 38.9123 156.427 39.577C157.149 40.1702 158.08 40.4675 159.224 40.4663C160.49 40.4651 161.645 40.2643 162.684 39.8601L163.133 41.8286C161.919 42.357 160.486 42.6207 158.832 42.6223C156.843 42.6241 155.281 42.0424 154.143 40.8799C153.008 39.7162 152.439 38.1511 152.437 36.1899C152.435 34.2648 152.962 32.6601 154.018 31.3797C155.124 30.0126 156.619 29.328 158.502 29.3264C160.351 29.3246 161.75 30.0063 162.702 31.3713C163.456 32.4529 163.836 33.7946 163.837 35.3882ZM161.119 34.6546C161.138 33.8119 160.95 33.0864 160.563 32.4731C160.069 31.6827 159.309 31.2894 158.292 31.2904C157.36 31.2913 156.601 31.6767 156.025 32.4495C155.55 33.0637 155.269 33.8014 155.183 34.6577L161.119 34.6546Z" fill="black"/>
<path d="M66.0037 13.1511L64.9457 13.1521C64.8828 12.8492 64.773 12.5831 64.6163 12.3539C64.4625 12.1247 64.2746 11.9323 64.0525 11.7768C63.8333 11.6183 63.59 11.4997 63.3225 11.4207C63.0549 11.3416 62.7762 11.3022 62.486 11.3025C61.9569 11.303 61.4777 11.4365 61.0484 11.7031C60.622 11.9697 60.2824 12.3623 60.0298 12.8807C59.78 13.3992 59.6554 14.035 59.6561 14.7883C59.657 15.5415 59.7826 16.1771 60.0336 16.6951C60.2871 17.2131 60.6275 17.605 61.0544 17.8708C61.4842 18.1364 61.9637 18.2691 62.4927 18.2686C62.7829 18.2684 63.0617 18.2285 63.329 18.1488C63.5962 18.0693 63.8394 17.9517 64.0582 17.7956C64.28 17.6368 64.4677 17.4427 64.621 17.2131C64.7772 16.9808 64.8864 16.7145 64.9488 16.4143L66.007 16.4133C65.9277 16.858 65.783 17.256 65.5729 17.6073C65.3627 17.9588 65.1012 18.2576 64.7886 18.5043C64.4759 18.7481 64.1248 18.9339 63.7352 19.0617C63.3484 19.1896 62.9347 19.2537 62.4937 19.254C61.7483 19.2548 61.0854 19.0743 60.5049 18.7123C59.9242 18.3503 59.467 17.8354 59.1336 17.1675C58.8002 16.4995 58.633 15.7068 58.6321 14.7892C58.6312 13.8717 58.7968 13.0787 59.1289 12.4101C59.4611 11.7415 59.9172 11.2257 60.4973 10.8627C61.0772 10.4996 61.7399 10.3177 62.4851 10.317C62.926 10.3167 63.3399 10.38 63.7269 10.507C64.1168 10.6341 64.4683 10.8206 64.7815 11.0667C65.0947 11.3099 65.3566 11.607 65.5674 11.9579C65.7782 12.306 65.9237 12.7038 66.0037 13.1511Z" fill="black"/>
<path d="M67.583 19.1303L67.5766 12.6059L68.5837 12.6048L68.5865 15.4423L69.252 15.4417L71.6047 12.602L72.9018 12.6008L70.2594 15.7465L72.9423 19.1251L71.6452 19.1263L69.4919 16.3759L68.5873 16.3768L68.5899 19.1293L67.583 19.1303Z" fill="black"/>
<path d="M75.9655 19.2752C75.5499 19.2755 75.173 19.1981 74.8342 19.0425C74.4962 18.8843 74.2269 18.6567 74.0271 18.3595C73.8281 18.0595 73.7278 17.6971 73.7278 17.2724C73.7271 16.8985 73.801 16.5955 73.9488 16.3631C74.0966 16.1279 74.2942 15.9437 74.5415 15.8104C74.7889 15.677 75.0618 15.5777 75.3603 15.5123C75.6618 15.444 75.9648 15.39 76.2692 15.35C76.6672 15.2986 76.9899 15.2601 77.2372 15.2344C77.4875 15.2058 77.6697 15.1589 77.7838 15.0937C77.9002 15.0284 77.958 14.9151 77.958 14.7537V14.7197C77.958 14.3006 77.8424 13.9751 77.6119 13.7431C77.3836 13.5111 77.0382 13.3953 76.5743 13.3958C76.0935 13.3963 75.7167 13.5014 75.4438 13.7112C75.1708 13.921 74.9791 14.1449 74.8686 14.3828L73.9122 14.044C74.0827 13.6474 74.3096 13.3385 74.5942 13.1174C74.8811 12.8934 75.1942 12.7373 75.5323 12.6492C75.874 12.5582 76.2092 12.5126 76.5392 12.5123C76.7499 12.5121 76.9914 12.5374 77.2643 12.5881C77.5409 12.6359 77.8065 12.7362 78.0626 12.8889C78.3224 13.0415 78.5368 13.2721 78.708 13.5806C78.8793 13.8891 78.9649 14.3025 78.9649 14.8207L78.9693 19.1193L77.9624 19.1203L77.9617 18.2369H77.9104C77.8424 18.3785 77.7282 18.53 77.5695 18.6915C77.4099 18.8533 77.1985 18.9908 76.9336 19.1043C76.6694 19.2178 76.3467 19.2748 75.9655 19.2752ZM76.1184 18.3745C76.5165 18.3741 76.8524 18.2959 77.1253 18.1398C77.4012 17.984 77.6082 17.7826 77.7473 17.5361C77.8892 17.2896 77.9602 17.0304 77.9602 16.7586L77.9595 15.8411C77.9163 15.8921 77.8226 15.9389 77.6778 15.9815C77.5358 16.0213 77.3704 16.0568 77.1831 16.0882C76.998 16.1167 76.8172 16.1424 76.6409 16.1652C76.4675 16.1852 76.327 16.2023 76.2187 16.2166C75.9567 16.2508 75.7123 16.3062 75.4847 16.383C75.2601 16.4567 75.0779 16.5688 74.9389 16.719C74.8028 16.8664 74.7347 17.0675 74.7347 17.3223C74.7354 17.6707 74.865 17.9338 75.124 18.1121C75.386 18.2874 75.7174 18.3748 76.1184 18.3745Z" fill="black"/>
<path d="M85.8527 12.5884L85.8593 19.1127L84.8525 19.1137L84.8459 12.5893L85.8527 12.5884ZM85.4635 15.698L85.4642 16.6325C85.2366 16.7177 85.0112 16.7929 84.7859 16.8582C84.5612 16.9207 84.3256 16.9706 84.0783 17.0076C83.8309 17.0418 83.5587 17.0591 83.2631 17.0594C82.5204 17.0601 81.9248 16.861 81.4748 16.4621C81.0277 16.0633 80.8038 15.4645 80.803 14.666L80.8008 12.5762L81.8077 12.5753L81.8099 14.665C81.8106 14.9992 81.8743 15.2738 82.0031 15.4889C82.1311 15.704 82.3046 15.8639 82.5241 15.9684C82.7429 16.073 82.9895 16.1252 83.2624 16.1249C83.689 16.1244 84.0746 16.0858 84.4185 16.009C84.7654 15.9294 85.1137 15.8258 85.4635 15.698Z" fill="black"/>
<path d="M89.6358 19.262C89.2202 19.2624 88.8433 19.185 88.5045 19.0294C88.1665 18.8712 87.8972 18.6435 87.6974 18.3464C87.4984 18.0464 87.3981 17.684 87.3981 17.2593C87.3974 16.8855 87.4713 16.5824 87.6191 16.3501C87.7669 16.1149 87.9645 15.9307 88.2118 15.7973C88.4592 15.664 88.7321 15.5646 89.0306 15.4992C89.3321 15.431 89.635 15.3768 89.9394 15.3369C90.3375 15.2856 90.6602 15.247 90.9075 15.2213C91.1578 15.1928 91.34 15.1459 91.4534 15.0806C91.5705 15.0153 91.6283 14.9021 91.6283 14.7406V14.7066C91.6283 14.2876 91.5127 13.962 91.2814 13.73C91.0539 13.498 90.7085 13.3823 90.2446 13.3827C89.7638 13.3831 89.387 13.4883 89.1141 13.6981C88.8411 13.9079 88.6494 14.1318 88.5389 14.3698L87.5825 14.0309C87.753 13.6342 87.9799 13.3254 88.2645 13.1042C88.5513 12.8802 88.8645 12.7242 89.2026 12.6361C89.5443 12.5452 89.8794 12.4996 90.2095 12.4992C90.4202 12.499 90.6617 12.5243 90.9346 12.575C91.2112 12.6229 91.4768 12.7231 91.7329 12.8758C91.992 13.0285 92.2071 13.259 92.3783 13.5676C92.5488 13.8761 92.6352 14.2894 92.6352 14.8077L92.6395 19.1061L91.6327 19.1072L91.632 18.2237H91.5807C91.5127 18.3653 91.3985 18.5169 91.2397 18.6786C91.0802 18.8402 90.8687 18.9777 90.6039 19.0912C90.3397 19.2048 90.017 19.2617 89.6358 19.262ZM89.7887 18.3614C90.1868 18.361 90.5226 18.2827 90.7956 18.1267C91.0714 17.9708 91.2785 17.7696 91.4176 17.523C91.5595 17.2765 91.6305 17.0174 91.6305 16.7455L91.629 15.828C91.5866 15.879 91.4929 15.9259 91.348 15.9685C91.2061 16.0082 91.0407 16.0438 90.8527 16.0751C90.6683 16.1036 90.4875 16.1293 90.3112 16.1521C90.1378 16.1721 89.9973 16.1892 89.889 16.2035C89.627 16.2377 89.3826 16.2932 89.155 16.3698C88.9304 16.4437 88.7482 16.5557 88.6092 16.7059C88.4731 16.8533 88.405 17.0544 88.405 17.3093C88.4057 17.6575 88.5352 17.9208 88.7943 18.099C89.0562 18.2744 89.3877 18.3617 89.7887 18.3614Z" fill="black"/>
<path d="M93.5806 13.5155L93.5791 12.581L98.9047 12.5759L98.9054 13.5104L96.7548 13.5124L96.76 19.1022L95.7531 19.1033L95.748 13.5134L93.5806 13.5155Z" fill="black"/>
<path d="M101.246 14.9354L103.124 14.9336C103.891 14.9328 104.479 15.1262 104.887 15.5138C105.293 15.9013 105.498 16.3925 105.498 16.9871C105.498 17.3779 105.407 17.7335 105.226 18.0536C105.045 18.3709 104.777 18.6246 104.425 18.8146C104.072 19.002 103.64 19.0957 103.127 19.0962L100.38 19.0988L100.373 12.5745L101.381 12.5735L101.386 18.1634L103.127 18.1617C103.525 18.1614 103.852 18.0562 104.108 17.8465C104.363 17.6367 104.491 17.3676 104.491 17.0391C104.491 16.6936 104.363 16.412 104.106 16.1942C103.85 15.9764 103.523 15.8677 103.124 15.8681L101.247 15.8698L101.246 14.9354Z" fill="black"/>
<path d="M110.412 19.0894L110.406 12.5649L113.085 12.5624C113.791 12.5617 114.351 12.7198 114.767 13.0365C115.183 13.3533 115.391 13.7722 115.391 14.2933C115.392 14.6897 115.274 14.9971 115.038 15.2153C114.802 15.4308 114.499 15.5769 114.13 15.6537C114.372 15.6875 114.607 15.7722 114.834 15.9079C115.065 16.0436 115.255 16.2303 115.407 16.468C115.557 16.7029 115.633 16.9917 115.633 17.3343C115.633 17.6685 115.549 17.9673 115.378 18.2309C115.208 18.4943 114.963 18.7026 114.645 18.856C114.327 19.0091 113.945 19.086 113.502 19.0863L110.412 19.0894ZM111.367 18.1709L113.5 18.169C113.848 18.1686 114.119 18.0862 114.316 17.9217C114.512 17.7573 114.61 17.5335 114.609 17.2504C114.609 16.9134 114.51 16.6487 114.314 16.4563C114.117 16.2611 113.846 16.1637 113.499 16.164L111.365 16.166L111.367 18.1709ZM111.364 15.2995L113.088 15.2979C113.358 15.2976 113.59 15.2606 113.784 15.1867C113.977 15.1101 114.125 15.0024 114.227 14.8635C114.332 14.7219 114.384 14.5548 114.384 14.3622C114.384 14.0875 114.269 13.8724 114.038 13.7169C113.808 13.5585 113.49 13.4795 113.086 13.4799L111.363 13.4815L111.364 15.2995Z" fill="black"/>
</svg>
