<svg width="28" height="27" viewBox="0 0 28 27" fill="none" xmlns="http://www.w3.org/2000/svg">
<rect x="0.505127" y="0.166992" width="26.5051" height="26.5051" rx="4.24082" fill="#E8446B"/>
<g filter="url(#filter0_d_12_21874)">
<path d="M6.50513 20.167H16.7718" stroke="white" stroke-width="1.673" stroke-linecap="round" stroke-linejoin="round"/>
<path d="M12.6632 16.7649L9.30511 17.367L9.86479 13.9777L17.398 6.49678C17.5021 6.39228 17.6259 6.30934 17.7623 6.25274C17.8987 6.19613 18.045 6.16699 18.1928 6.16699C18.3405 6.16699 18.4868 6.19613 18.6232 6.25274C18.7596 6.30934 18.8834 6.39228 18.9875 6.49678L20.174 7.67856C20.2789 7.78221 20.3622 7.90552 20.419 8.04138C20.4759 8.17724 20.5051 8.32296 20.5051 8.47014C20.5051 8.61732 20.4759 8.76304 20.419 8.8989C20.3622 9.03476 20.2789 9.15807 20.174 9.26171L12.6632 16.7649Z" stroke="white" stroke-width="1.673" stroke-linecap="round" stroke-linejoin="round"/>
</g>
<defs>
<filter id="filter0_d_12_21874" x="4.66864" y="5.33044" width="17.673" height="17.6731" filterUnits="userSpaceOnUse" color-interpolation-filters="sRGB">
<feFlood flood-opacity="0" result="BackgroundImageFix"/>
<feColorMatrix in="SourceAlpha" type="matrix" values="0 0 0 0 0 0 0 0 0 0 0 0 0 0 0 0 0 0 127 0" result="hardAlpha"/>
<feOffset dy="1"/>
<feGaussianBlur stdDeviation="0.5"/>
<feComposite in2="hardAlpha" operator="out"/>
<feColorMatrix type="matrix" values="0 0 0 0 0 0 0 0 0 0 0 0 0 0 0 0 0 0 0.16 0"/>
<feBlend mode="normal" in2="BackgroundImageFix" result="effect1_dropShadow_12_21874"/>
<feBlend mode="normal" in="SourceGraphic" in2="effect1_dropShadow_12_21874" result="shape"/>
</filter>
</defs>
</svg>
