<svg width="27" height="27" viewBox="0 0 27 27" fill="none" xmlns="http://www.w3.org/2000/svg">
<rect y="0.166992" width="26.5051" height="26.5051" rx="4.24082" fill="#598DBD"/>
<g filter="url(#filter0_d_12_21882)">
<mask id="path-2-outside-1_12_21882" maskUnits="userSpaceOnUse" x="5.36133" y="5.46802" width="16" height="16" fill="black">
<rect fill="white" x="5.36133" y="5.46802" width="16" height="16"/>
<path fill-rule="evenodd" clip-rule="evenodd" d="M11.2321 8.13625C11.1623 7.6441 10.7421 7.28069 10.2479 7.28647L10.2431 7.28653L8.16037 7.2865C8.15966 7.28657 8.15437 7.28695 8.13833 7.28856C8.13729 7.28866 8.13615 7.28878 8.13493 7.2889C8.1198 7.29044 8.09149 7.29332 8.05911 7.29433C7.52387 7.34674 7.12992 7.82323 7.17986 8.35859C7.40132 10.4541 8.11217 12.4623 9.24944 14.2247L9.25144 14.2278C10.2859 15.863 11.6678 17.252 13.3023 18.2917L13.3061 18.2942C15.0593 19.4373 17.0583 20.1445 19.1377 20.3749C19.148 20.3761 19.1582 20.3776 19.1684 20.3795C19.1699 20.3797 19.1726 20.3799 19.1767 20.38C19.1884 20.3806 19.2017 20.3806 19.2233 20.3806C19.7607 20.3806 20.2003 19.9368 20.2003 19.3904V17.2859C20.2119 16.7807 19.8497 16.3567 19.3589 16.2936L19.3565 16.2933C18.6587 16.1992 17.978 16.0281 17.3147 15.7802L17.3096 15.7783C16.9552 15.6404 16.5477 15.7269 16.279 15.997L16.2776 15.9983L15.3902 16.8822C15.2604 17.0115 15.0608 17.038 14.9021 16.947C13.0971 15.9127 11.6032 14.4198 10.5734 12.6041C10.4822 12.4433 10.5097 12.241 10.6405 12.1107L11.5255 11.2293C11.7875 10.9586 11.8746 10.546 11.7423 10.1871M11.2321 8.13625C11.3257 8.83707 11.4959 9.5209 11.7423 10.1871L11.2321 8.13625ZM10.2409 6.46811C11.1455 6.45879 11.9124 7.12551 12.0384 8.02313L12.0388 8.02593C12.1243 8.6667 12.2798 9.29184 12.5054 9.90185C12.7471 10.5567 12.5908 11.3052 12.1054 11.8038L12.101 11.8083L11.4386 12.468C12.3341 13.9456 13.5678 15.1793 15.0399 16.079L15.7033 15.4183C15.7035 15.4181 15.7037 15.4179 15.7039 15.4177C16.1998 14.9197 16.9466 14.7607 17.6008 15.014C18.2066 15.2402 18.8273 15.3961 19.4635 15.482C20.3708 15.5993 21.033 16.3836 21.0145 17.2998V19.3904C21.0145 20.3825 20.2166 21.199 19.2233 21.199C19.2213 21.199 19.219 21.199 19.2165 21.199C19.1838 21.1991 19.1099 21.1994 19.0349 21.1869C16.8374 20.9412 14.7224 20.1927 12.8649 18.982C11.1301 17.8781 9.66351 16.4038 8.56541 14.6685C7.35887 12.7983 6.60469 10.6668 6.37001 8.44266L6.36957 8.4385C6.27447 7.44013 7.01369 6.56234 8.00225 6.47777M10.2409 6.46811H8.15889C8.11755 6.46811 8.07925 6.47201 8.06073 6.47389C8.05951 6.47402 8.05837 6.47413 8.05732 6.47424C8.04107 6.47587 8.03586 6.47623 8.03526 6.4763"/>
</mask>
<path fill-rule="evenodd" clip-rule="evenodd" d="M11.2321 8.13625C11.1623 7.6441 10.7421 7.28069 10.2479 7.28647L10.2431 7.28653L8.16037 7.2865C8.15966 7.28657 8.15437 7.28695 8.13833 7.28856C8.13729 7.28866 8.13615 7.28878 8.13493 7.2889C8.1198 7.29044 8.09149 7.29332 8.05911 7.29433C7.52387 7.34674 7.12992 7.82323 7.17986 8.35859C7.40132 10.4541 8.11217 12.4623 9.24944 14.2247L9.25144 14.2278C10.2859 15.863 11.6678 17.252 13.3023 18.2917L13.3061 18.2942C15.0593 19.4373 17.0583 20.1445 19.1377 20.3749C19.148 20.3761 19.1582 20.3776 19.1684 20.3795C19.1699 20.3797 19.1726 20.3799 19.1767 20.38C19.1884 20.3806 19.2017 20.3806 19.2233 20.3806C19.7607 20.3806 20.2003 19.9368 20.2003 19.3904V17.2859C20.2119 16.7807 19.8497 16.3567 19.3589 16.2936L19.3565 16.2933C18.6587 16.1992 17.978 16.0281 17.3147 15.7802L17.3096 15.7783C16.9552 15.6404 16.5477 15.7269 16.279 15.997L16.2776 15.9983L15.3902 16.8822C15.2604 17.0115 15.0608 17.038 14.9021 16.947C13.0971 15.9127 11.6032 14.4198 10.5734 12.6041C10.4822 12.4433 10.5097 12.241 10.6405 12.1107L11.5255 11.2293C11.7875 10.9586 11.8746 10.546 11.7423 10.1871M11.2321 8.13625C11.3257 8.83707 11.4959 9.5209 11.7423 10.1871L11.2321 8.13625ZM10.2409 6.46811C11.1455 6.45879 11.9124 7.12551 12.0384 8.02313L12.0388 8.02593C12.1243 8.6667 12.2798 9.29184 12.5054 9.90185C12.7471 10.5567 12.5908 11.3052 12.1054 11.8038L12.101 11.8083L11.4386 12.468C12.3341 13.9456 13.5678 15.1793 15.0399 16.079L15.7033 15.4183C15.7035 15.4181 15.7037 15.4179 15.7039 15.4177C16.1998 14.9197 16.9466 14.7607 17.6008 15.014C18.2066 15.2402 18.8273 15.3961 19.4635 15.482C20.3708 15.5993 21.033 16.3836 21.0145 17.2998V19.3904C21.0145 20.3825 20.2166 21.199 19.2233 21.199C19.2213 21.199 19.219 21.199 19.2165 21.199C19.1838 21.1991 19.1099 21.1994 19.0349 21.1869C16.8374 20.9412 14.7224 20.1927 12.8649 18.982C11.1301 17.8781 9.66351 16.4038 8.56541 14.6685C7.35887 12.7983 6.60469 10.6668 6.37001 8.44266L6.36957 8.4385C6.27447 7.44013 7.01369 6.56234 8.00225 6.47777M10.2409 6.46811H8.15889C8.11755 6.46811 8.07925 6.47201 8.06073 6.47389C8.05951 6.47402 8.05837 6.47413 8.05732 6.47424C8.04107 6.47587 8.03586 6.47623 8.03526 6.4763" fill="white"/>
<path d="M11.3607 8.10426C11.343 8.03323 11.2711 7.98997 11.2001 8.00764C11.1291 8.02531 11.0858 8.09722 11.1035 8.16824L11.3607 8.10426ZM11.6137 10.219C11.6314 10.2901 11.7033 10.3333 11.7743 10.3157C11.8453 10.298 11.8886 10.2261 11.8709 10.1551L11.6137 10.219ZM10.2409 6.46811L10.2415 6.60064C10.3147 6.60032 10.3737 6.54076 10.3734 6.46758C10.3732 6.39441 10.3136 6.33532 10.2404 6.33559L10.2409 6.46811ZM8.00167 6.34525C7.92848 6.34556 7.86941 6.40515 7.86972 6.47834C7.87004 6.55153 7.92963 6.61061 8.00282 6.6103L8.00167 6.34525ZM8.03477 6.34378C7.96158 6.34405 7.90246 6.4036 7.90273 6.47679C7.90301 6.54998 7.96256 6.6091 8.03575 6.60883L8.03477 6.34378ZM11.8709 10.1551L11.3607 8.10426L11.1035 8.16824L11.6137 10.219L11.8709 10.1551ZM8.00282 6.6103L10.2415 6.60064L10.2404 6.33559L8.00167 6.34525L8.00282 6.6103ZM8.03575 6.60883L10.2414 6.60064L10.2404 6.33559L8.03477 6.34378L8.03575 6.60883ZM10.2479 7.28647L10.2448 7.02144L10.2448 7.02144L10.2479 7.28647ZM11.2321 8.13625L11.4948 8.10115L11.4945 8.09905L11.2321 8.13625ZM10.2431 7.28653L10.2431 7.5516L10.2462 7.55156L10.2431 7.28653ZM8.16037 7.2865L8.16037 7.02145C8.15132 7.02145 8.14228 7.02191 8.13327 7.02284L8.16037 7.2865ZM8.13833 7.28856L8.16484 7.55228H8.16484L8.13833 7.28856ZM8.13493 7.2889L8.10812 7.02521L8.10812 7.02521L8.13493 7.2889ZM8.05911 7.29433L8.05089 7.0294C8.04501 7.02958 8.03913 7.02996 8.03328 7.03054L8.05911 7.29433ZM7.17986 8.35859L6.91594 8.38321L6.91628 8.38644L7.17986 8.35859ZM9.24944 14.2247L9.02674 14.3684L9.02674 14.3684L9.24944 14.2247ZM9.25144 14.2278L9.47544 14.0861L9.47414 14.0841L9.25144 14.2278ZM13.3023 18.2917L13.16 18.5154L13.16 18.5154L13.3023 18.2917ZM13.3061 18.2942L13.4509 18.0721L13.4484 18.0705L13.3061 18.2942ZM19.1377 20.3749L19.1085 20.6384H19.1085L19.1377 20.3749ZM19.1684 20.3795L19.1191 20.64C19.1277 20.6416 19.1364 20.6428 19.1451 20.6436L19.1684 20.3795ZM19.1767 20.38L19.1888 20.1153L19.1888 20.1153L19.1767 20.38ZM20.2003 17.2859L19.9353 17.2799V17.2859H20.2003ZM19.3589 16.2936L19.3243 16.5564L19.3251 16.5565L19.3589 16.2936ZM19.3565 16.2933L19.321 16.556L19.3218 16.5561L19.3565 16.2933ZM17.3147 15.7802L17.4075 15.5319L17.4075 15.5319L17.3147 15.7802ZM17.3096 15.7783L17.2135 16.0254L17.2169 16.0266L17.3096 15.7783ZM16.279 15.997L16.4664 16.1844L16.4669 16.184L16.279 15.997ZM16.2776 15.9983L16.4647 16.1861L16.465 16.1858L16.2776 15.9983ZM15.3902 16.8822L15.2032 16.6944H15.2032L15.3902 16.8822ZM14.9021 16.947L15.0339 16.717L14.9021 16.947ZM10.5734 12.6041L10.8039 12.4733L10.5734 12.6041ZM10.6405 12.1107L10.8276 12.2985L10.6405 12.1107ZM11.5255 11.2293L11.7126 11.4171L11.716 11.4136L11.5255 11.2293ZM11.7423 10.1871L11.991 10.0954L11.9909 10.0951L11.7423 10.1871ZM12.0384 8.02313L11.776 8.05999L11.776 8.06002L12.0384 8.02313ZM10.2409 6.46811V6.73318L10.2437 6.73315L10.2409 6.46811ZM12.0388 8.02593L12.3016 7.99086L12.3013 7.98904L12.0388 8.02593ZM12.5054 9.90185L12.7541 9.81009L12.754 9.80991L12.5054 9.90185ZM12.1054 11.8038L11.9155 11.6189L11.9155 11.6189L12.1054 11.8038ZM12.101 11.8083L12.2881 11.9961L12.2909 11.9932L12.101 11.8083ZM11.4386 12.468L11.2515 12.2802C11.1649 12.3664 11.1485 12.5008 11.2119 12.6053L11.4386 12.468ZM15.0399 16.079L14.9017 16.3051C15.006 16.3689 15.1404 16.353 15.227 16.2668L15.0399 16.079ZM15.7033 15.4183L15.8903 15.6061L15.8912 15.6053L15.7033 15.4183ZM15.7039 15.4177L15.8914 15.605L15.8917 15.6048L15.7039 15.4177ZM17.6008 15.014L17.5051 15.2612L17.5081 15.2623L17.6008 15.014ZM19.4635 15.482L19.4281 15.7447L19.4296 15.7449L19.4635 15.482ZM21.0145 17.2998L20.7494 17.2944V17.2998H21.0145ZM19.2165 21.199L19.2173 21.4641L19.2173 21.4641L19.2165 21.199ZM19.0349 21.1869L19.0784 20.9254C19.0738 20.9246 19.0691 20.924 19.0644 20.9235L19.0349 21.1869ZM12.8649 18.982L13.0097 18.76L13.0072 18.7584L12.8649 18.982ZM8.56541 14.6685L8.78939 14.5268L8.78813 14.5248L8.56541 14.6685ZM6.37001 8.44266L6.10642 8.47047L6.10642 8.47047L6.37001 8.44266ZM6.36957 8.4385L6.1057 8.46364L6.10598 8.46631L6.36957 8.4385ZM8.02484 6.74186C8.17069 6.72938 8.27881 6.60103 8.26633 6.45518C8.25385 6.30933 8.1255 6.20121 7.97965 6.21369L8.02484 6.74186ZM8.06073 6.47389L8.08754 6.73758L8.08754 6.73758L8.06073 6.47389ZM8.05732 6.47424L8.08383 6.73796L8.08383 6.73796L8.05732 6.47424ZM8.00617 6.21285C7.86067 6.22892 7.75574 6.35989 7.77181 6.50539C7.78788 6.65089 7.91885 6.75582 8.06435 6.73975L8.00617 6.21285ZM10.251 7.5515C10.6105 7.5473 10.9184 7.81162 10.9697 8.17345L11.4945 8.09905C11.4063 7.47658 10.8738 7.01409 10.2448 7.02144L10.251 7.5515ZM10.2462 7.55156L10.251 7.5515L10.2448 7.02144L10.24 7.02149L10.2462 7.55156ZM8.16037 7.55155L10.2431 7.55158L10.2431 7.02148L8.16037 7.02145L8.16037 7.55155ZM8.16484 7.55228C8.17202 7.55156 8.17635 7.55116 8.17865 7.55095C8.17977 7.55085 8.1805 7.55079 8.18095 7.55076C8.18109 7.55074 8.18121 7.55073 8.18137 7.55072C8.18149 7.55071 8.18175 7.55069 8.18199 7.55067C8.1822 7.55065 8.18272 7.55061 8.18333 7.55055C8.18368 7.55052 8.18537 7.55038 8.18747 7.55016L8.13327 7.02284C8.13528 7.02263 8.13684 7.02249 8.13703 7.02248C8.13728 7.02246 8.13748 7.02244 8.13758 7.02243C8.13768 7.02242 8.13775 7.02242 8.13776 7.02242C8.13777 7.02241 8.13777 7.02241 8.13772 7.02242C8.13767 7.02242 8.13761 7.02243 8.13752 7.02244C8.13735 7.02245 8.1371 7.02247 8.13681 7.02249C8.13557 7.0226 8.13384 7.02274 8.13155 7.02295C8.12702 7.02335 8.12069 7.02395 8.11182 7.02484L8.16484 7.55228ZM8.16173 7.5526C8.16299 7.55247 8.16397 7.55237 8.16484 7.55228L8.11183 7.02484C8.1106 7.02496 8.10931 7.02509 8.10812 7.02521L8.16173 7.5526ZM8.06732 7.55925C8.10974 7.55793 8.14602 7.55419 8.16174 7.5526L8.10812 7.02521C8.09358 7.02669 8.07324 7.02871 8.05089 7.0294L8.06732 7.55925ZM7.44377 8.33397C7.4074 7.94414 7.69465 7.59633 8.08494 7.55811L8.03328 7.03054C7.35308 7.09714 6.85243 7.70231 6.91596 8.38321L7.44377 8.33397ZM9.47215 14.081C8.35734 12.3534 7.66053 10.3848 7.44345 8.33073L6.91628 8.38644C7.14211 10.5233 7.86701 12.5712 9.02674 14.3684L9.47215 14.081ZM9.47414 14.0841L9.47215 14.081L9.02674 14.3684L9.02874 14.3715L9.47414 14.0841ZM13.4445 18.0681C11.8432 17.0494 10.4892 15.6884 9.47543 14.0861L9.02745 14.3695C10.0827 16.0375 11.4924 17.4545 13.16 18.5154L13.4445 18.0681ZM13.4484 18.0705L13.4445 18.0681L13.16 18.5154L13.1638 18.5178L13.4484 18.0705ZM19.1669 20.1115C17.128 19.8855 15.1687 19.1922 13.4509 18.0721L13.1613 18.5162C14.9499 19.6823 16.9886 20.4034 19.1085 20.6384L19.1669 20.1115ZM19.2176 20.1191C19.2008 20.1159 19.1839 20.1134 19.1669 20.1115L19.1085 20.6384C19.112 20.6388 19.1156 20.6393 19.1191 20.64L19.2176 20.1191ZM19.1888 20.1153C19.1879 20.1152 19.189 20.1153 19.1916 20.1155L19.1451 20.6436C19.1509 20.6441 19.1574 20.6445 19.1646 20.6448L19.1888 20.1153ZM19.2233 20.1156C19.2005 20.1156 19.1934 20.1155 19.1888 20.1153L19.1646 20.6448C19.1834 20.6457 19.2028 20.6457 19.2233 20.6457V20.1156ZM19.9353 19.3904C19.9353 19.7935 19.6113 20.1156 19.2233 20.1156V20.6457C19.9102 20.6457 20.4654 20.0801 20.4654 19.3904H19.9353ZM19.3251 16.5565C19.6787 16.602 19.9439 16.9075 19.9353 17.2799L20.4653 17.292C20.4799 16.6538 20.0207 16.1115 19.3927 16.0307L19.3251 16.5565ZM19.3218 16.5561L19.3243 16.5564L19.3936 16.0308L19.3911 16.0305L19.3218 16.5561ZM17.222 16.0285C17.9036 16.2832 18.6036 16.4592 19.321 16.556L19.3919 16.0306C18.7139 15.9392 18.0523 15.7729 17.4075 15.5319L17.222 16.0285ZM17.2169 16.0266L17.222 16.0285L17.4075 15.5319L17.4024 15.53L17.2169 16.0266ZM16.4669 16.184C16.6615 15.9884 16.9576 15.9257 17.2135 16.0253L17.4058 15.5313C16.9529 15.3551 16.4339 15.4655 16.0911 15.8101L16.4669 16.184ZM16.465 16.1858L16.4664 16.1844L16.0916 15.8096L16.0902 15.8109L16.465 16.1858ZM15.5772 17.07L16.4647 16.1861L16.0906 15.8105L15.2032 16.6944L15.5772 17.07ZM14.7703 17.177C15.0329 17.3274 15.363 17.2834 15.5772 17.07L15.2032 16.6944C15.1578 16.7395 15.0888 16.7485 15.0339 16.717L14.7703 17.177ZM10.3428 12.7348C11.3963 14.5923 12.9244 16.1192 14.7703 17.177L15.0339 16.717C13.2697 15.7061 11.8101 14.2474 10.8039 12.4733L10.3428 12.7348ZM10.4535 11.9229C10.2379 12.1376 10.1929 12.4704 10.3428 12.7348L10.8039 12.4733C10.7715 12.4162 10.7815 12.3444 10.8276 12.2985L10.4535 11.9229ZM11.3385 11.0415L10.4535 11.9229L10.8276 12.2985L11.7126 11.4171L11.3385 11.0415ZM11.4936 10.2787C11.591 10.5429 11.5257 10.848 11.3351 11.045L11.716 11.4136C12.0494 11.0691 12.1583 10.5491 11.991 10.0954L11.4936 10.2787ZM10.9694 8.17135C11.0656 8.89169 11.2406 9.59458 11.4937 10.279L11.9909 10.0951C11.7513 9.44722 11.5858 8.78245 11.4948 8.10115L10.9694 8.17135ZM12.3009 7.98627C12.1565 6.95837 11.2775 6.19237 10.2382 6.20308L10.2437 6.73315C11.0134 6.72522 11.6682 7.29265 11.776 8.05999L12.3009 7.98627ZM12.3013 7.98904L12.3009 7.98624L11.776 8.06002L11.7764 8.06281L12.3013 7.98904ZM12.754 9.80991C12.5351 9.21818 12.3845 8.61211 12.3016 7.99086L11.7761 8.06099C11.8642 8.72129 12.0244 9.3655 12.2568 9.9938L12.754 9.80991ZM12.2953 11.9887C12.8527 11.4162 13.0308 10.5599 12.7541 9.81009L12.2568 9.99362C12.4634 10.5536 12.329 11.1942 11.9155 11.6189L12.2953 11.9887ZM12.2909 11.9932L12.2953 11.9887L11.9155 11.6189L11.9111 11.6234L12.2909 11.9932ZM11.6256 12.6558L12.2881 11.9961L11.914 11.6204L11.2515 12.2802L11.6256 12.6558ZM15.1782 15.8528C13.7419 14.975 12.5386 13.7717 11.6652 12.3306L11.2119 12.6053C12.1296 14.1195 13.3937 15.3835 14.9017 16.3051L15.1782 15.8528ZM15.5162 15.2305L14.8529 15.8912L15.227 16.2668L15.8903 15.6061L15.5162 15.2305ZM15.5163 15.2304C15.5159 15.2308 15.515 15.2317 15.5154 15.2314L15.8912 15.6053L15.8914 15.605L15.5163 15.2304ZM17.6965 14.7669C16.944 14.4755 16.086 14.6584 15.5161 15.2307L15.8917 15.6048C16.3136 15.1811 16.9492 15.046 17.5051 15.2612L17.6965 14.7669ZM19.499 15.2193C18.8825 15.1361 18.2809 14.985 17.6935 14.7657L17.5081 15.2623C18.1322 15.4954 18.7722 15.6561 19.4281 15.7447L19.499 15.2193ZM21.2795 17.3051C21.3006 16.2567 20.5419 15.3542 19.4975 15.2191L19.4296 15.7449C20.1997 15.8445 20.7653 16.5106 20.7495 17.2944L21.2795 17.3051ZM21.2795 19.3904V17.2998H20.7494V19.3904H21.2795ZM19.2233 21.4641C20.3664 21.4641 21.2795 20.5255 21.2795 19.3904H20.7494C20.7494 20.2396 20.0667 20.934 19.2233 20.934V21.4641ZM19.2173 21.4641C19.2199 21.4641 19.2218 21.4641 19.2233 21.4641V20.934C19.2209 20.934 19.2182 20.934 19.2157 20.934L19.2173 21.4641ZM18.9914 21.4483C19.0906 21.4648 19.1844 21.4642 19.2173 21.4641L19.2158 20.934C19.1833 20.9341 19.1293 20.9339 19.0784 20.9254L18.9914 21.4483ZM12.7202 19.2041C14.613 20.4377 16.7676 21.2001 19.0055 21.4503L19.0644 20.9235C16.9073 20.6823 14.8318 19.9476 13.0097 18.76L12.7202 19.2041ZM8.34143 14.8102C9.46029 16.5783 10.9547 18.0806 12.7226 19.2056L13.0072 18.7584C11.3056 17.6755 9.86674 16.2292 8.78938 14.5268L8.34143 14.8102ZM6.10642 8.47047C6.34547 10.736 7.11369 12.9071 8.34268 14.8122L8.78813 14.5248C7.60406 12.6894 6.86391 10.5976 6.6336 8.41485L6.10642 8.47047ZM6.10598 8.46631L6.10642 8.47047L6.6336 8.41485L6.63316 8.41069L6.10598 8.46631ZM7.97965 6.21369C6.84467 6.31078 5.9966 7.31813 6.10571 8.46364L6.63343 8.41337C6.55234 7.56213 7.18271 6.8139 8.02484 6.74186L7.97965 6.21369ZM10.2409 6.20306H8.15889V6.73317H10.2409V6.20306ZM8.15889 6.20306C8.1029 6.20306 8.05288 6.20827 8.03392 6.2102L8.08754 6.73758C8.10563 6.73574 8.13221 6.73317 8.15889 6.73317V6.20306ZM8.03392 6.2102C8.03265 6.21033 8.03168 6.21043 8.03081 6.21051L8.08383 6.73796C8.08506 6.73784 8.08636 6.7377 8.08754 6.73758L8.03392 6.2102ZM8.03081 6.21051C8.02354 6.21125 8.01919 6.21165 8.01692 6.21185C8.01581 6.21195 8.0151 6.21201 8.01464 6.21205C8.0145 6.21206 8.01438 6.21207 8.0142 6.21208C8.01407 6.21209 8.01378 6.21212 8.0135 6.21214C8.01326 6.21216 8.01262 6.21222 8.01186 6.21228C8.01155 6.21231 8.00915 6.21252 8.00617 6.21285L8.06435 6.73975C8.06144 6.74007 8.05915 6.74027 8.059 6.74029C8.05838 6.74034 8.05793 6.74038 8.05793 6.74038C8.05787 6.74038 8.05786 6.74038 8.05805 6.74037C8.05819 6.74036 8.05843 6.74034 8.05871 6.74031C8.05991 6.74021 8.06162 6.74007 8.06392 6.73986C8.06847 6.73946 8.07485 6.73886 8.08383 6.73796L8.03081 6.21051ZM19.9353 17.2859V19.3904H20.4654V17.2859H19.9353Z" fill="white" mask="url(#path-2-outside-1_12_21882)"/>
</g>
<defs>
<filter id="filter0_d_12_21882" x="5.03605" y="6.203" width="17.3041" height="18.4417" filterUnits="userSpaceOnUse" color-interpolation-filters="sRGB">
<feFlood flood-opacity="0" result="BackgroundImageFix"/>
<feColorMatrix in="SourceAlpha" type="matrix" values="0 0 0 0 0 0 0 0 0 0 0 0 0 0 0 0 0 0 127 0" result="hardAlpha"/>
<feOffset dy="2.12041"/>
<feGaussianBlur stdDeviation="0.530102"/>
<feComposite in2="hardAlpha" operator="out"/>
<feColorMatrix type="matrix" values="0 0 0 0 0 0 0 0 0 0 0 0 0 0 0 0 0 0 0.16 0"/>
<feBlend mode="normal" in2="BackgroundImageFix" result="effect1_dropShadow_12_21882"/>
<feBlend mode="normal" in="SourceGraphic" in2="effect1_dropShadow_12_21882" result="shape"/>
</filter>
</defs>
</svg>
