<svg width="38" height="39" viewBox="0 0 38 39" fill="none" xmlns="http://www.w3.org/2000/svg">
<path d="M37.9932 19.8101C37.9932 30.3034 29.4866 38.8101 18.9932 38.8101C8.49992 38.8101 -0.00675964 30.3034 -0.00675964 19.8101C-0.00675964 9.31674 8.49992 0.810059 18.9932 0.810059C29.4866 0.810059 37.9932 9.31674 37.9932 19.8101ZM17.0727 28.677H20.8332L20.8324 19.8093H23.342L23.6741 16.7541H20.8317L20.8378 15.2242C20.8378 14.427 20.9153 14.0006 22.0887 14.0006H23.6574V10.9431H21.1478C18.1329 10.9431 17.072 12.4267 17.072 14.9187V16.7533H15.1932V19.8085H17.072L17.0727 28.677Z" fill="#89A4FF"/>
</svg>
