<svg width="95" height="28" viewBox="0 0 95 28" fill="none" xmlns="http://www.w3.org/2000/svg">
<path d="M91.0541 28H4.13004C2.18294 28 0.653076 26.4702 0.653076 24.5231V3.66129C0.653076 1.71419 2.18294 0.184326 4.13004 0.184326H91.0541C93.0012 0.184326 94.5311 1.71419 94.5311 3.66129V24.5231C94.5311 26.4702 93.0012 28 91.0541 28Z" fill="black"/>
<path d="M91.0541 0.74064C92.6535 0.74064 93.9748 2.06189 93.9748 3.66129V24.5231C93.9748 26.1225 92.6535 27.4437 91.0541 27.4437H4.13004C2.53064 27.4437 1.20939 26.1225 1.20939 24.5231V3.66129C1.20939 2.06189 2.53064 0.74064 4.13004 0.74064H91.0541ZM91.0541 0.184326H4.13004C2.18294 0.184326 0.653076 1.78373 0.653076 3.66129V24.5231C0.653076 26.4702 2.18294 28 4.13004 28H91.0541C93.0012 28 94.5311 26.4702 94.5311 24.5231V3.66129C94.5311 1.78373 93.0012 0.184326 91.0541 0.184326Z" fill="#A6A6A6"/>
<path d="M48.0092 15.344C46.3403 15.344 45.0191 16.5957 45.0191 18.3342C45.0191 20.0032 46.3403 21.3244 48.0092 21.3244C49.6782 21.3244 50.9994 20.0727 50.9994 18.3342C50.9994 16.5262 49.6782 15.344 48.0092 15.344ZM48.0092 20.0727C47.1052 20.0727 46.3403 19.3078 46.3403 18.2647C46.3403 17.2216 47.1052 16.4567 48.0092 16.4567C48.9133 16.4567 49.6782 17.152 49.6782 18.2647C49.6782 19.3078 48.9133 20.0727 48.0092 20.0727ZM41.5421 15.344C39.8732 15.344 38.5519 16.5957 38.5519 18.3342C38.5519 20.0032 39.8732 21.3244 41.5421 21.3244C43.211 21.3244 44.5323 20.0727 44.5323 18.3342C44.5323 16.5262 43.211 15.344 41.5421 15.344ZM41.5421 20.0727C40.6381 20.0727 39.8732 19.3078 39.8732 18.2647C39.8732 17.2216 40.6381 16.4567 41.5421 16.4567C42.4461 16.4567 43.211 17.152 43.211 18.2647C43.211 19.3078 42.4461 20.0727 41.5421 20.0727ZM33.8232 16.248V17.4997H36.8134C36.7439 18.1951 36.4657 18.7515 36.118 19.0991C35.7008 19.5164 35.0054 20.0032 33.8232 20.0032C31.9457 20.0032 30.5549 18.5428 30.5549 16.6653C30.5549 14.7877 32.0152 13.3274 33.8232 13.3274C34.7968 13.3274 35.5617 13.7446 36.118 14.2314L37.022 13.3274C36.2571 12.632 35.2836 12.0757 33.8928 12.0757C31.3894 12.0757 29.2336 14.1619 29.2336 16.6653C29.2336 19.1687 31.3894 21.2549 33.8928 21.2549C35.2836 21.2549 36.2571 20.8376 37.0916 19.9336C37.9261 19.0991 38.2042 17.917 38.2042 17.013C38.2042 16.7348 38.2042 16.4567 38.1347 16.248H33.8232ZM65.3941 17.2216C65.1159 16.5262 64.4205 15.344 62.8906 15.344C61.3608 15.344 60.1091 16.5262 60.1091 18.3342C60.1091 20.0032 61.3608 21.3244 63.0297 21.3244C64.351 21.3244 65.1854 20.4899 65.4636 20.0032L64.4901 19.3078C64.1424 19.7945 63.7251 20.1422 63.0297 20.1422C62.3343 20.1422 61.9171 19.8641 61.5694 19.2382L65.5331 17.5693L65.3941 17.2216ZM61.3608 18.1951C61.3608 17.0825 62.2648 16.4567 62.8906 16.4567C63.3774 16.4567 63.8642 16.7348 64.0033 17.0825L61.3608 18.1951ZM58.0924 21.0462H59.4137V12.3538H58.0924V21.0462ZM56.0063 15.9699C55.6586 15.6222 55.1023 15.2745 54.4069 15.2745C52.9465 15.2745 51.5557 16.5957 51.5557 18.2647C51.5557 19.9336 52.877 21.1853 54.4069 21.1853C55.1023 21.1853 55.6586 20.8376 55.9367 20.4899H56.0063V20.9072C56.0063 22.0198 55.3804 22.6457 54.4069 22.6457C53.6419 22.6457 53.0856 22.0893 52.9465 21.6026L51.8339 22.0893C52.1816 22.8543 53.0161 23.8278 54.4764 23.8278C56.0063 23.8278 57.258 22.9238 57.258 20.7681V15.4831H56.0063V15.9699ZM54.4764 20.0727C53.5724 20.0727 52.8075 19.3078 52.8075 18.2647C52.8075 17.2216 53.5724 16.4567 54.4764 16.4567C55.3804 16.4567 56.0758 17.2216 56.0758 18.2647C56.0758 19.3078 55.3804 20.0727 54.4764 20.0727ZM71.444 12.3538H68.3147V21.0462H69.636V17.7779H71.444C72.9043 17.7779 74.2951 16.7348 74.2951 15.0659C74.2951 13.3969 72.9043 12.3538 71.444 12.3538ZM71.5135 16.5262H69.636V13.536H71.5135C72.4871 13.536 73.0434 14.3705 73.0434 14.9963C72.9738 15.7613 72.4175 16.5262 71.5135 16.5262ZM79.5105 15.2745C78.537 15.2745 77.5634 15.6917 77.2157 16.5957L78.3979 17.0825C78.6761 16.5957 79.0933 16.4567 79.5801 16.4567C80.2755 16.4567 80.9013 16.8739 80.9709 17.5693V17.6388C80.7622 17.4997 80.2059 17.2911 79.6496 17.2911C78.3979 17.2911 77.1462 17.9865 77.1462 19.2382C77.1462 20.4204 78.1893 21.1853 79.3019 21.1853C80.2059 21.1853 80.6232 20.7681 80.9709 20.3509H81.0404V21.0462H82.2921V17.7084C82.153 16.1785 80.9709 15.2745 79.5105 15.2745ZM79.3715 20.0727C78.9542 20.0727 78.3284 19.8641 78.3284 19.3078C78.3284 18.6124 79.0933 18.4038 79.7192 18.4038C80.2755 18.4038 80.5536 18.5428 80.9013 18.6819C80.7622 19.5164 80.0668 20.0727 79.3715 20.0727ZM86.6731 15.4831L85.2128 19.2382H85.1432L83.6134 15.4831H82.2226L84.5174 20.7681L83.1961 23.6887H84.5174L88.0639 15.4831H86.6731ZM74.9905 21.0462H76.3117V12.3538H74.9905V21.0462Z" fill="white"/>
<path d="M7.88534 5.3999C7.67672 5.60853 7.60718 5.95623 7.60718 6.37348V21.7421C7.60718 22.1594 7.74626 22.5071 7.95488 22.7157L8.02443 22.7852L16.6476 14.1621V14.023L7.88534 5.3999Z" fill="url(#paint0_linear_21_3084)"/>
<path d="M19.4293 17.0824L16.5781 14.2312V14.0226L19.4293 11.1714L19.4989 11.2409L22.9064 13.1881C23.88 13.7444 23.88 14.6485 22.9064 15.2048L19.4293 17.0824Z" fill="url(#paint1_linear_21_3084)"/>
<path d="M19.4987 17.0128L16.5779 14.092L7.88525 22.7847C8.23296 23.1324 8.71975 23.1324 9.34562 22.8542L19.4987 17.0128Z" fill="url(#paint2_linear_21_3084)"/>
<path d="M19.4984 11.1717L9.34538 5.39974C8.71951 5.05204 8.23272 5.12158 7.88501 5.46928L16.5777 14.0924L19.4984 11.1717Z" fill="url(#paint3_linear_21_3084)"/>
<path opacity="0.2" d="M19.4291 16.9431L9.34562 22.6455C8.78929 22.9932 8.3025 22.9237 7.9548 22.6455L7.88525 22.715L7.9548 22.7846C8.3025 23.0628 8.78929 23.1323 9.34562 22.7846L19.4291 16.9431Z" fill="black"/>
<path opacity="0.12" d="M7.88461 22.6456C7.67599 22.437 7.60645 22.0893 7.60645 21.672V21.7416C7.60645 22.1588 7.74553 22.5065 7.95415 22.7152V22.6456H7.88461ZM22.9055 14.9961L19.4285 16.9432L19.498 17.0128L22.9055 15.0656C23.3923 14.7875 23.601 14.4397 23.601 14.092C23.601 14.4397 23.3228 14.7179 22.9055 14.9961Z" fill="black"/>
<path opacity="0.25" d="M9.34498 5.46943L22.9055 13.1885C23.3228 13.4667 23.601 13.7449 23.601 14.0926C23.601 13.7449 23.3923 13.3971 22.9055 13.119L9.34498 5.39989C8.3714 4.84356 7.60645 5.26081 7.60645 6.37347V6.44301C7.60645 5.39989 8.3714 4.9131 9.34498 5.46943Z" fill="white"/>
<path d="M33.3778 5.74756H32.8266C32.794 5.58903 32.737 5.44975 32.6555 5.32974C32.5755 5.20972 32.4777 5.10897 32.3621 5.02748C32.2481 4.9445 32.1214 4.88227 31.9821 4.84079C31.8428 4.7993 31.6976 4.77856 31.5465 4.77856C31.2709 4.77856 31.0212 4.8482 30.7975 4.98747C30.5753 5.12675 30.3982 5.33196 30.2663 5.6031C30.1359 5.87425 30.0708 6.20688 30.0708 6.601C30.0708 6.99512 30.1359 7.32775 30.2663 7.5989C30.3982 7.87004 30.5753 8.07525 30.7975 8.21453C31.0212 8.3538 31.2709 8.42344 31.5465 8.42344C31.6976 8.42344 31.8428 8.4027 31.9821 8.36121C32.1214 8.31973 32.2481 8.25824 32.3621 8.17675C32.4777 8.09377 32.5755 7.99228 32.6555 7.87226C32.737 7.75077 32.794 7.61149 32.8266 7.45444H33.3778C33.3363 7.68706 33.2608 7.89523 33.1511 8.07896C33.0415 8.26268 32.9052 8.419 32.7422 8.5479C32.5792 8.67532 32.3962 8.77237 32.1932 8.83905C31.9917 8.90572 31.7761 8.93906 31.5465 8.93906C31.1583 8.93906 30.8131 8.84423 30.5108 8.65458C30.2085 8.46493 29.9707 8.19527 29.7974 7.84559C29.624 7.49592 29.5374 7.08106 29.5374 6.601C29.5374 6.12094 29.624 5.70608 29.7974 5.35641C29.9707 5.00673 30.2085 4.73707 30.5108 4.54742C30.8131 4.35777 31.1583 4.26294 31.5465 4.26294C31.7761 4.26294 31.9917 4.29628 32.1932 4.36295C32.3962 4.42963 32.5792 4.52742 32.7422 4.65632C32.9052 4.78374 33.0415 4.93932 33.1511 5.12304C33.2608 5.30529 33.3363 5.51346 33.3778 5.74756Z" fill="white"/>
<path d="M34.1974 8.87683V5.46308H34.7219V6.94771H35.0686L36.2954 5.46308H36.971L35.5931 7.10773L36.9888 8.87683H36.3132L35.193 7.43666H34.7219V8.87683H34.1974Z" fill="white"/>
<path d="M38.5634 8.95684C38.3471 8.95684 38.1508 8.91609 37.9745 8.8346C37.7982 8.75163 37.6581 8.63236 37.5544 8.47678C37.4507 8.31973 37.3989 8.13007 37.3989 7.90782C37.3989 7.71224 37.4374 7.55371 37.5144 7.43221C37.5915 7.30923 37.6944 7.21293 37.8234 7.14329C37.9523 7.07365 38.0945 7.02179 38.2501 6.98771C38.4071 6.95215 38.5649 6.924 38.7235 6.90326C38.9309 6.87659 39.0991 6.85659 39.228 6.84325C39.3584 6.82843 39.4532 6.80399 39.5124 6.76991C39.5732 6.73583 39.6036 6.67656 39.6036 6.59211V6.57433C39.6036 6.35504 39.5436 6.18465 39.4235 6.06316C39.305 5.94166 39.125 5.88091 38.8835 5.88091C38.6331 5.88091 38.4368 5.93573 38.2945 6.04538C38.1523 6.15502 38.0523 6.27207 37.9945 6.39653L37.4966 6.21873C37.5855 6.0113 37.7041 5.8498 37.8522 5.73423C38.0019 5.61718 38.1649 5.53569 38.3412 5.48975C38.519 5.44234 38.6938 5.41863 38.8657 5.41863C38.9753 5.41863 39.1013 5.43197 39.2435 5.45864C39.3872 5.48383 39.5258 5.53643 39.6591 5.61644C39.794 5.69645 39.9058 5.8172 39.9947 5.9787C40.0836 6.1402 40.1281 6.35653 40.1281 6.62767V8.87683H39.6036V8.41455H39.5769C39.5413 8.48864 39.4821 8.5679 39.3991 8.65236C39.3161 8.73681 39.2057 8.80867 39.0679 8.86794C38.9302 8.92721 38.762 8.95684 38.5634 8.95684ZM38.6435 8.48567C38.8509 8.48567 39.0257 8.44493 39.168 8.36343C39.3117 8.28194 39.4198 8.17675 39.4924 8.04784C39.5665 7.91894 39.6036 7.78336 39.6036 7.64113V7.16107C39.5813 7.18774 39.5324 7.21218 39.4569 7.23441C39.3828 7.25515 39.2969 7.27367 39.1991 7.28997C39.1028 7.30479 39.0087 7.31812 38.9168 7.32998C38.8264 7.34035 38.7531 7.34924 38.6968 7.35665C38.5605 7.37443 38.4331 7.40332 38.3145 7.44332C38.1975 7.48185 38.1026 7.54037 38.03 7.6189C37.9589 7.69595 37.9234 7.80114 37.9234 7.93449C37.9234 8.11674 37.9908 8.25453 38.1256 8.34788C38.2619 8.43974 38.4345 8.48567 38.6435 8.48567Z" fill="white"/>
<path d="M43.7168 5.46308V8.87683H43.1923V5.46308H43.7168ZM43.5124 7.08995V7.5789C43.3938 7.62335 43.276 7.66261 43.159 7.69669C43.0419 7.72928 42.919 7.75521 42.7901 7.77447C42.6612 7.79225 42.5197 7.80114 42.3656 7.80114C41.9789 7.80114 41.6684 7.69669 41.4343 7.48777C41.2017 7.27886 41.0854 6.96549 41.0854 6.54766V5.45419H41.6099V6.54766C41.6099 6.7225 41.6433 6.86622 41.7099 6.97882C41.7766 7.09143 41.867 7.17514 41.9811 7.22996C42.0952 7.28479 42.2233 7.3122 42.3656 7.3122C42.5878 7.3122 42.7886 7.29219 42.9679 7.25219C43.1486 7.2107 43.3301 7.15662 43.5124 7.08995Z" fill="white"/>
<path d="M45.6837 8.95684C45.4674 8.95684 45.2711 8.91609 45.0948 8.8346C44.9185 8.75163 44.7785 8.63236 44.6747 8.47678C44.571 8.31973 44.5192 8.13007 44.5192 7.90782C44.5192 7.71224 44.5577 7.55371 44.6347 7.43221C44.7118 7.30923 44.8148 7.21293 44.9437 7.14329C45.0726 7.07365 45.2148 7.02179 45.3704 6.98771C45.5274 6.95215 45.6852 6.924 45.8438 6.90326C46.0512 6.87659 46.2194 6.85659 46.3483 6.84325C46.4787 6.82843 46.5735 6.80399 46.6327 6.76991C46.6935 6.73583 46.7239 6.67656 46.7239 6.59211V6.57433C46.7239 6.35504 46.6639 6.18465 46.5438 6.06316C46.4253 5.94166 46.2453 5.88091 46.0038 5.88091C45.7534 5.88091 45.5571 5.93573 45.4148 6.04538C45.2726 6.15502 45.1726 6.27207 45.1148 6.39653L44.617 6.21873C44.7059 6.0113 44.8244 5.8498 44.9725 5.73423C45.1222 5.61718 45.2852 5.53569 45.4615 5.48975C45.6393 5.44234 45.8141 5.41863 45.986 5.41863C46.0956 5.41863 46.2216 5.43197 46.3638 5.45864C46.5075 5.48383 46.6461 5.53643 46.7794 5.61644C46.9143 5.69645 47.0261 5.8172 47.115 5.9787C47.2039 6.1402 47.2484 6.35653 47.2484 6.62767V8.87683H46.7239V8.41455H46.6972C46.6616 8.48864 46.6024 8.5679 46.5194 8.65236C46.4364 8.73681 46.326 8.80867 46.1883 8.86794C46.0505 8.92721 45.8823 8.95684 45.6837 8.95684ZM45.7638 8.48567C45.9712 8.48567 46.146 8.44493 46.2883 8.36343C46.432 8.28194 46.5401 8.17675 46.6127 8.04784C46.6868 7.91894 46.7239 7.78336 46.7239 7.64113V7.16107C46.7016 7.18774 46.6528 7.21218 46.5772 7.23441C46.5031 7.25515 46.4172 7.27367 46.3194 7.28997C46.2231 7.30479 46.129 7.31812 46.0371 7.32998C45.9467 7.34035 45.8734 7.34924 45.8171 7.35665C45.6808 7.37443 45.5534 7.40332 45.4348 7.44332C45.3178 7.48185 45.2229 7.54037 45.1503 7.6189C45.0792 7.69595 45.0437 7.80114 45.0437 7.93449C45.0437 8.11674 45.1111 8.25453 45.2459 8.34788C45.3822 8.43974 45.5548 8.48567 45.7638 8.48567Z" fill="white"/>
<path d="M47.7412 5.95203V5.46308H50.5149V5.95203H49.3947V8.87683H48.8702V5.95203H47.7412Z" fill="white"/>
<path d="M51.7334 6.69879H52.7113C53.1113 6.69879 53.4173 6.80028 53.6292 7.00327C53.841 7.20626 53.947 7.46333 53.947 7.77447C53.947 7.97894 53.8996 8.16489 53.8047 8.33232C53.7099 8.49827 53.5706 8.63087 53.3869 8.73015C53.2032 8.82794 52.978 8.87683 52.7113 8.87683H51.28V5.46308H51.8045V8.38788H52.7113C52.9187 8.38788 53.0891 8.33306 53.2224 8.22342C53.3558 8.11378 53.4225 7.97302 53.4225 7.80114C53.4225 7.62038 53.3558 7.47296 53.2224 7.35887C53.0891 7.24478 52.9187 7.18774 52.7113 7.18774H51.7334V6.69879Z" fill="white"/>
<path d="M56.5056 8.87683V5.46308H57.9013C58.2688 5.46308 58.5607 5.54606 58.777 5.712C58.9933 5.87795 59.1015 6.09724 59.1015 6.36986C59.1015 6.57729 59.04 6.73805 58.917 6.85214C58.794 6.96475 58.6362 7.04105 58.4436 7.08106C58.5696 7.09884 58.6918 7.14329 58.8103 7.21441C58.9303 7.28553 59.0296 7.38332 59.1081 7.50778C59.1867 7.63075 59.2259 7.78188 59.2259 7.96116C59.2259 8.136 59.1815 8.29232 59.0926 8.43011C59.0037 8.5679 58.8763 8.67681 58.7103 8.75682C58.5444 8.83682 58.3458 8.87683 58.1147 8.87683H56.5056ZM57.0034 8.39677H58.1147C58.2955 8.39677 58.437 8.3538 58.5392 8.26787C58.6414 8.18193 58.6925 8.06488 58.6925 7.91671C58.6925 7.7404 58.6414 7.60186 58.5392 7.50111C58.437 7.39887 58.2955 7.34776 58.1147 7.34776H57.0034V8.39677ZM57.0034 6.89437H57.9013C58.0421 6.89437 58.1628 6.87511 58.2636 6.83658C58.3644 6.79658 58.4414 6.74028 58.4947 6.66767C58.5496 6.59359 58.577 6.50617 58.577 6.40542C58.577 6.2617 58.517 6.14909 58.3969 6.0676C58.2769 5.98463 58.1117 5.94314 57.9013 5.94314H57.0034V6.89437Z" fill="white"/>
<defs>
<linearGradient id="paint0_linear_21_3084" x1="15.8131" y1="6.24135" x2="4.14193" y2="17.9118" gradientUnits="userSpaceOnUse">
<stop stop-color="#00A0FF"/>
<stop offset="0.007" stop-color="#00A1FF"/>
<stop offset="0.26" stop-color="#00BEFF"/>
<stop offset="0.512" stop-color="#00D2FF"/>
<stop offset="0.76" stop-color="#00DFFF"/>
<stop offset="1" stop-color="#00E3FF"/>
</linearGradient>
<linearGradient id="paint1_linear_21_3084" x1="24.1818" y1="14.0928" x2="7.35486" y2="14.0928" gradientUnits="userSpaceOnUse">
<stop stop-color="#FFE000"/>
<stop offset="0.409" stop-color="#FFBD00"/>
<stop offset="0.775" stop-color="#FFA500"/>
<stop offset="1" stop-color="#FF9C00"/>
</linearGradient>
<linearGradient id="paint2_linear_21_3084" x1="17.918" y1="15.6887" x2="2.09177" y2="31.5149" gradientUnits="userSpaceOnUse">
<stop stop-color="#FF3A44"/>
<stop offset="1" stop-color="#C31162"/>
</linearGradient>
<linearGradient id="paint3_linear_21_3084" x1="5.72714" y1="0.306534" x2="12.7946" y2="7.37402" gradientUnits="userSpaceOnUse">
<stop stop-color="#32A071"/>
<stop offset="0.069" stop-color="#2DA771"/>
<stop offset="0.476" stop-color="#15CF74"/>
<stop offset="0.801" stop-color="#06E775"/>
<stop offset="1" stop-color="#00F076"/>
</linearGradient>
</defs>
</svg>
