<svg width="180" height="54" viewBox="0 0 180 54" fill="none" xmlns="http://www.w3.org/2000/svg">
<rect x="0.55102" y="0.55102" width="178.898" height="52.898" rx="6.64898" fill="#F5F5F5" stroke="black" stroke-width="1.10204"/>
<path d="M90.4465 28.8232C87.3058 28.826 84.8214 31.1839 84.8249 34.4553C84.8278 37.596 87.3166 40.08 90.4572 40.0771C93.5979 40.074 96.0817 37.7162 96.0788 34.4447C96.0752 31.0423 93.5872 28.8201 90.4465 28.8232ZM90.4551 37.7215C88.7539 37.7231 87.313 36.285 87.3108 34.3222C87.3094 32.3594 88.7474 30.9184 90.4479 30.9168C92.1499 30.9152 93.5901 32.2223 93.5922 34.3161C93.5944 36.2791 92.1556 37.7199 90.4551 37.7215ZM78.276 28.8349C75.1353 28.8377 72.6516 31.1956 72.6545 34.467C72.6581 37.6077 75.1468 40.0917 78.2875 40.0888C81.4282 40.0857 83.9119 37.7278 83.9091 34.4564C83.9055 31.054 81.4167 28.8318 78.276 28.8349ZM78.2846 37.7332C76.5834 37.7347 75.1432 36.2967 75.1411 34.3339C75.1389 32.3711 76.5769 30.9301 78.2782 30.9285C79.9794 30.9269 81.4203 32.234 81.4225 34.3278C81.4239 36.2908 79.9859 37.7316 78.2846 37.7332ZM63.7527 30.5499L63.7549 32.9054L69.3818 32.8999C69.2522 34.2087 68.7298 35.2561 68.0761 35.911C67.2918 36.6969 65.984 37.6142 63.7595 37.6164C60.2262 37.6198 57.6063 34.8741 57.6029 31.341C57.5996 27.8078 60.345 25.0571 63.7474 25.0538C65.5793 25.052 67.0196 25.8358 68.0673 26.7509L69.7669 25.0481C68.3261 23.7408 66.4931 22.6956 63.876 22.6981C59.165 22.7027 55.1121 26.6325 55.1166 31.3433C55.1212 36.0543 59.1816 39.9761 63.8926 39.9717C66.5096 39.9692 68.3411 39.1823 69.9097 37.4795C71.4785 35.9078 71.9997 33.6825 71.9982 31.9814C71.9975 31.458 71.9975 30.9346 71.8659 30.542L63.7527 30.5499ZM123.165 32.3248C122.64 31.0167 121.329 28.7935 118.45 28.7962C115.571 28.7989 113.218 31.0259 113.221 34.4282C113.224 37.5688 115.582 40.0529 118.723 40.0498C121.209 40.0474 122.778 38.4755 123.301 37.5591L121.468 36.2523C120.813 37.169 120.03 37.824 118.721 37.8252C117.412 37.8264 116.626 37.3038 115.971 36.1267L123.427 32.9789L123.165 32.3248ZM115.576 34.1641C115.574 32.0704 117.275 30.891 118.452 30.89C119.368 30.889 120.285 31.4116 120.547 32.0656L115.576 34.1641ZM109.431 39.5353L111.918 39.5329L111.902 23.1755L109.415 23.1779L109.431 39.5353ZM105.496 29.9864C104.841 29.3327 103.794 28.6794 102.485 28.6807C99.7373 28.6832 97.1224 31.1722 97.1252 34.3127C97.1281 37.4534 99.6168 39.8066 102.496 39.8036C103.805 39.8025 104.851 39.1472 105.373 38.4923L105.504 38.4922L105.505 39.2773C105.507 41.3711 104.33 42.55 102.499 42.5519C101.059 42.5532 100.011 41.5073 99.7488 40.5916L97.656 41.5095C98.3115 42.9484 99.8836 44.779 102.631 44.7762C105.51 44.7735 107.864 43.07 107.861 39.0134L107.851 29.0681L105.495 29.0703L105.496 29.9864ZM102.625 37.7098C100.924 37.7114 99.4827 36.2733 99.4806 34.3105C99.4791 32.3477 100.917 30.9068 102.618 30.9051C104.32 30.9035 105.629 32.3418 105.631 34.3046C105.633 36.2675 104.326 37.7082 102.625 37.7098ZM134.54 23.1538L128.652 23.1594L128.668 39.5169L131.154 39.5145L131.148 33.3641L134.55 33.3609C137.298 33.3581 139.914 31.3928 139.911 28.2521C139.907 25.1116 137.289 23.1511 134.54 23.1538ZM134.679 31.0052L131.146 31.0086L131.14 25.3816L134.674 25.3782C136.505 25.3765 137.554 26.9458 137.556 28.1235C137.426 29.5631 136.38 31.0036 134.679 31.0052ZM149.725 28.6353C147.893 28.637 146.062 29.424 145.41 31.1258L147.635 32.0397C148.157 31.1231 148.943 30.8607 149.859 30.8598C151.167 30.8585 152.346 31.6425 152.478 32.9511V33.0819C152.085 32.8205 151.038 32.429 149.991 32.43C147.635 32.4322 145.281 33.7431 145.284 36.0985C145.286 38.3231 147.25 39.7608 149.344 39.7588C151.045 39.7571 151.829 38.9712 152.483 38.1854L152.613 38.1852L152.615 39.4939L154.97 39.4916L154.965 33.2102C154.7 30.3317 152.474 28.6326 149.725 28.6353ZM149.473 37.6648C148.687 37.6657 147.509 37.2741 147.508 36.2273C147.507 34.9187 148.946 34.5246 150.124 34.5236C151.17 34.5226 151.694 34.7838 152.349 35.0449C152.088 36.6154 150.781 37.6637 149.473 37.6648ZM163.205 29.0149L160.463 36.084L160.332 36.0841L157.447 29.0205L154.83 29.0231L159.157 38.9641L156.677 44.4627L159.162 44.4603L165.822 29.0124L163.205 29.0149ZM141.23 39.5048L143.716 39.5025L143.701 23.145L141.214 23.1474L141.23 39.5048Z" fill="black"/>
<path d="M14.9231 10.1823C14.5309 10.5752 14.4007 11.2297 14.4014 12.0149L14.4292 40.9356C14.43 41.7207 14.6923 42.375 15.0853 42.7672L15.2163 42.8979L31.4277 26.6552L31.4275 26.3934L14.9231 10.1823Z" fill="url(#paint0_linear_12_21758)"/>
<path d="M36.6675 32.1457L31.297 26.7854L31.2967 26.3929L36.6568 21.0223L36.7878 21.153L43.2036 24.8111C45.0367 25.8563 45.0384 27.5576 43.2073 28.6061L36.6675 32.1457Z" fill="url(#paint1_linear_12_21758)"/>
<path d="M36.7982 32.0151L31.2966 26.524L14.9544 42.8976C15.6094 43.5514 16.5254 43.5504 17.7026 43.0259L36.7982 32.0151Z" fill="url(#paint2_linear_12_21758)"/>
<path d="M36.7874 21.0227L17.6709 10.1794C16.4925 9.52615 15.5766 9.65791 14.9229 10.3129L31.2963 26.5242L36.7874 21.0227Z" fill="url(#paint3_linear_12_21758)"/>
<path opacity="0.2" d="M36.6671 31.8837L17.7022 42.6327C16.656 43.2881 15.7398 43.158 15.085 42.6352L14.9542 42.7661L15.0853 42.897C15.7401 43.4197 16.6563 43.5498 17.7025 42.8944L36.6671 31.8837Z" fill="white"/>
<path opacity="0.12" d="M14.9533 42.6354C14.5604 42.2431 14.4289 41.589 14.4281 40.8039L14.4282 40.9346C14.429 41.7198 14.6913 42.3739 15.0843 42.7662L15.0842 42.6353L14.9533 42.6354ZM43.2059 28.2132L36.6664 31.8838L36.7973 32.0146L43.206 28.3442C44.1217 27.8199 44.5137 27.1651 44.513 26.5107C44.5137 27.1651 43.9907 27.6891 43.2059 28.2132Z" fill="white"/>
<path opacity="0.25" d="M17.6701 10.3107L43.2024 24.812C43.9881 25.3347 44.5121 25.8577 44.5127 26.5119C44.5121 25.8577 44.1188 25.2038 43.2022 24.6812L17.6699 10.1798C15.8368 9.13465 14.3981 9.92122 14.4001 12.0151L14.4003 12.1459C14.3983 10.1829 15.837 9.26554 17.6701 10.3107Z" fill="black"/>
<path d="M62.8955 10.7908L61.8583 10.7919C61.7968 10.4936 61.689 10.2316 61.5356 10.0059C61.3848 9.78021 61.2005 9.5908 60.983 9.4376C60.7681 9.28168 60.5297 9.16484 60.2674 9.08702C60.0052 9.00921 59.732 8.9704 59.4476 8.97069C58.929 8.97119 58.4593 9.10266 58.0385 9.36516C57.6206 9.62766 57.2878 10.0142 57.04 10.5246C56.7952 11.0351 56.6731 11.6612 56.6738 12.4029C56.6745 13.1445 56.7978 13.7703 57.0438 14.2803C57.2923 14.7903 57.6258 15.1762 58.0444 15.4378C58.4657 15.6996 58.9356 15.8302 59.4542 15.8297C59.7386 15.8294 60.0118 15.7901 60.2737 15.7117C60.5358 15.6334 60.7741 15.5175 60.9886 15.364C61.2059 15.2076 61.3897 15.0164 61.5401 14.7904C61.6933 14.5617 61.8003 14.2995 61.8615 14.0038L62.8985 14.0029C62.821 14.4407 62.6792 14.8326 62.4732 15.1785C62.2672 15.5244 62.0109 15.8188 61.7044 16.0617C61.3981 16.3018 61.0538 16.4848 60.672 16.6106C60.2929 16.7364 59.8873 16.7996 59.4552 16.8C58.7246 16.8006 58.0748 16.6228 57.5057 16.2664C56.9365 15.9101 56.4885 15.4031 56.1617 14.7454C55.8347 14.0878 55.6709 13.3072 55.6701 12.4038C55.6693 11.5005 55.8316 10.7196 56.1571 10.0612C56.4827 9.40289 56.9298 8.89502 57.4983 8.53764C58.0666 8.18017 58.7161 8.00108 59.4467 8.00037C59.8788 8.00001 60.2846 8.06233 60.6638 8.18742C61.046 8.3125 61.3906 8.49625 61.6976 8.73853C62.0043 8.97801 62.2612 9.27049 62.4678 9.61604C62.6745 9.9588 62.8171 10.3504 62.8955 10.7908Z" fill="black"/>
<path d="M64.4435 16.6781L64.4372 10.2542L65.4243 10.2532L65.427 13.0469L66.0794 13.0463L68.3854 10.2504L69.6568 10.2491L67.0666 13.3465L69.6964 16.6731L68.4249 16.6743L66.3145 13.9662L65.4278 13.9671L65.4304 16.6772L64.4435 16.6781Z" fill="black"/>
<path d="M72.6595 16.8208C72.2528 16.8211 71.883 16.7448 71.5512 16.5918C71.2192 16.436 70.9556 16.2118 70.7601 15.9192C70.5646 15.6239 70.4667 15.2671 70.4664 14.8489C70.466 14.4808 70.5382 14.1824 70.6829 13.9536C70.8277 13.722 71.0213 13.5406 71.2637 13.4094C71.5061 13.2781 71.7738 13.1802 72.0664 13.1158C72.3619 13.0486 72.6588 12.9953 72.9572 12.956C73.3473 12.9055 73.6636 12.8675 73.906 12.8422C74.1513 12.8141 74.3299 12.7679 74.4418 12.7037C74.5558 12.6395 74.6132 12.5279 74.6125 12.3689V12.3354C74.6125 11.9228 74.4992 11.6023 74.2732 11.3739C74.0502 11.1454 73.7109 11.0315 73.2562 11.0319C72.785 11.0323 72.4157 11.1359 72.1481 11.3424C71.8808 11.549 71.693 11.7695 71.5844 12.0038L70.6473 11.6701C70.8142 11.2796 71.0369 10.9754 71.3156 10.7577C71.597 10.5372 71.9036 10.3835 72.2349 10.2968C72.5699 10.2072 72.8983 10.1623 73.2218 10.162C73.4284 10.1618 73.6658 10.1867 73.9333 10.2366C74.2037 10.2838 74.4647 10.3825 74.7158 10.5328C74.9697 10.6831 75.1798 10.9102 75.3476 11.2139C75.5155 11.5177 75.5994 11.9247 75.6001 12.4349L75.6037 16.6674L74.6168 16.6684L74.6161 15.7984L74.5659 15.7984C74.4992 15.9379 74.3873 16.0872 74.2316 16.2463C74.076 16.4054 73.868 16.5408 73.6091 16.6526C73.3495 16.7643 73.0332 16.8204 72.6595 16.8208ZM72.8094 15.934C73.1996 15.9336 73.5288 15.8566 73.7963 15.703C74.0667 15.5494 74.2697 15.3513 74.4059 15.1086C74.5458 14.8658 74.6146 14.6107 74.6146 14.343L74.6139 13.4396C74.5716 13.4898 74.4798 13.5359 74.3378 13.5779C74.1987 13.617 74.0366 13.652 73.853 13.6829C73.6715 13.711 73.4943 13.7362 73.3215 13.7587C73.1515 13.7784 73.0138 13.7953 72.9077 13.8093C72.6516 13.843 72.4113 13.8976 72.189 13.9731C71.9681 14.0458 71.79 14.1561 71.6535 14.304C71.5198 14.4491 71.4531 14.6471 71.4534 14.8981C71.4536 15.241 71.5808 15.5002 71.8348 15.6756C72.0915 15.8482 72.4164 15.9344 72.8094 15.934Z" fill="black"/>
<path d="M82.3512 10.2368L82.357 16.6608L81.3701 16.6618L81.3643 10.2378L82.3512 10.2368ZM81.9689 13.2987L81.9704 14.2187C81.7473 14.3026 81.5257 14.3767 81.3055 14.441C81.0853 14.5026 80.8537 14.5516 80.6113 14.5881C80.3688 14.6218 80.1027 14.6388 79.8123 14.6391C79.085 14.6397 78.5005 14.4438 78.0594 14.051C77.6212 13.6583 77.4017 13.0688 77.401 12.2826L77.3988 10.2249L78.3864 10.2239L78.3879 12.2816C78.3886 12.6106 78.4517 12.881 78.5772 13.0927C78.7027 13.3045 78.8734 13.4619 79.0879 13.5649C79.303 13.6679 79.544 13.7192 79.8116 13.719C80.2297 13.7185 80.6077 13.6805 80.9448 13.6049C81.2847 13.5265 81.6261 13.4245 81.9689 13.2987Z" fill="black"/>
<path d="M86.0586 16.808C85.652 16.8083 85.2819 16.732 84.9505 16.579C84.6185 16.4232 84.3545 16.199 84.1594 15.9064C83.9636 15.6111 83.8661 15.2543 83.8654 14.836C83.8654 14.468 83.9371 14.1695 84.082 13.9408C84.2269 13.7092 84.4205 13.5278 84.6629 13.3965C84.9054 13.2653 85.1729 13.1674 85.4655 13.103C85.761 13.0358 86.0579 12.9825 86.3563 12.9432C86.7464 12.8927 87.0627 12.8547 87.3052 12.8293C87.5512 12.8013 87.729 12.7551 87.8409 12.6908C87.955 12.6266 88.0123 12.5151 88.0116 12.3561V12.3226C88.0116 11.91 87.8983 11.5894 87.6724 11.3611C87.4486 11.1326 87.1101 11.0187 86.6554 11.0191C86.1842 11.0195 85.8148 11.123 85.5473 11.3296C85.2797 11.5362 85.0918 11.7567 84.9835 11.991L84.0461 11.6573C84.2132 11.2667 84.4363 10.9626 84.7146 10.7449C84.9957 10.5243 85.3027 10.3707 85.634 10.2839C85.969 10.1944 86.2982 10.1495 86.6209 10.1492C86.8275 10.149 87.0649 10.1738 87.3324 10.2238C87.6028 10.271 87.8639 10.3696 88.1149 10.52C88.3688 10.6703 88.5789 10.8973 88.7468 11.2011C88.9146 11.5049 88.9985 11.9118 88.9992 12.422L89.0028 16.6546L88.0159 16.6555L88.0152 15.7856L87.965 15.7856C87.8983 15.9251 87.7864 16.0744 87.6308 16.2335C87.4751 16.3926 87.2672 16.528 87.0082 16.6397C86.7486 16.7515 86.4323 16.8076 86.0586 16.808ZM86.2085 15.9211C86.5987 15.9208 86.9279 15.8438 87.1954 15.6902C87.4658 15.5366 87.6688 15.3384 87.8051 15.0957C87.9449 14.853 88.0138 14.5978 88.0138 14.3301L88.0131 13.4268C87.9707 13.477 87.8789 13.5231 87.7369 13.5651C87.5978 13.6042 87.4357 13.6392 87.2521 13.6701C87.0706 13.6981 86.8935 13.7234 86.7206 13.7459C86.5507 13.7655 86.4129 13.7824 86.3068 13.7964C86.05 13.8301 85.8105 13.8847 85.5874 13.9603C85.3672 14.033 85.1894 14.1433 85.0524 14.2912C84.919 14.4363 84.8523 14.6343 84.8523 14.8852C84.853 15.2282 84.9799 15.4874 85.2338 15.6628C85.4906 15.8354 85.8155 15.9216 86.2085 15.9211Z" fill="black"/>
<path d="M89.9252 11.1497L89.9245 10.2296L95.1437 10.2245L95.1444 11.1447L93.0365 11.1467L93.0422 16.6506L92.0553 16.6515L92.0496 11.1477L89.9252 11.1497Z" fill="black"/>
<path d="M97.4388 12.5477L99.2792 12.546C100.032 12.5453 100.608 12.7357 101.007 13.1173C101.406 13.4989 101.606 13.9824 101.607 14.568C101.607 14.9528 101.518 15.3028 101.34 15.618C101.162 15.9305 100.9 16.1802 100.554 16.3674C100.209 16.5517 99.7849 16.6442 99.2828 16.6446L96.5897 16.6472L96.5839 10.2232L97.5708 10.2223L97.5758 15.7261L99.2821 15.7245C99.6723 15.7241 99.9936 15.6207 100.244 15.4141C100.495 15.2075 100.62 14.9426 100.62 14.6191C100.619 14.2789 100.493 14.0017 100.242 13.7872C99.9914 13.5728 99.6708 13.4657 99.2799 13.4661L97.4403 13.4678L97.4388 12.5477Z" fill="black"/>
<path d="M106.423 16.6378L106.417 10.2138L109.044 10.2112C109.735 10.2106 110.285 10.3662 110.692 10.6781C111.099 10.99 111.303 11.4025 111.304 11.9155C111.304 12.3058 111.188 12.6084 110.957 12.8234C110.726 13.0355 110.43 13.1794 110.067 13.255C110.304 13.2883 110.534 13.3717 110.757 13.5053C110.983 13.6389 111.17 13.8227 111.318 14.0568C111.466 14.2881 111.541 14.5724 111.541 14.9097C111.541 15.2388 111.457 15.533 111.29 15.7925C111.123 16.0519 110.884 16.2571 110.572 16.4079C110.26 16.5588 109.886 16.6344 109.451 16.6349L106.423 16.6378ZM107.359 15.7335L109.451 15.7315C109.791 15.7312 110.057 15.65 110.249 15.4882C110.441 15.3262 110.537 15.1059 110.537 14.8271C110.536 14.4953 110.44 14.2347 110.247 14.0453C110.055 13.8531 109.788 13.7572 109.448 13.7575L107.357 13.7595L107.359 15.7335ZM107.356 12.9063L109.046 12.9047C109.311 12.9044 109.538 12.868 109.728 12.7952C109.917 12.7198 110.062 12.6137 110.162 12.477C110.265 12.3375 110.317 12.1729 110.317 11.9833C110.316 11.7129 110.204 11.5011 109.977 11.348C109.751 11.192 109.441 11.1143 109.045 11.1147L107.355 11.1162L107.356 12.9063Z" fill="black"/>
<defs>
<linearGradient id="paint0_linear_12_21758" x1="29.8431" y1="11.7514" x2="7.90136" y2="33.7339" gradientUnits="userSpaceOnUse">
<stop stop-color="#00A0FF"/>
<stop offset="0.007" stop-color="#00A1FF"/>
<stop offset="0.26" stop-color="#00BEFF"/>
<stop offset="0.512" stop-color="#00D2FF"/>
<stop offset="0.76" stop-color="#00DFFF"/>
<stop offset="1" stop-color="#00E3FF"/>
</linearGradient>
<linearGradient id="paint1_linear_12_21758" x1="45.6054" y1="26.5114" x2="13.9403" y2="26.5416" gradientUnits="userSpaceOnUse">
<stop stop-color="#FFE000"/>
<stop offset="0.409" stop-color="#FFBD00"/>
<stop offset="0.775" stop-color="#FFA500"/>
<stop offset="1" stop-color="#FF9C00"/>
</linearGradient>
<linearGradient id="paint2_linear_12_21758" x1="33.8212" y1="29.5263" x2="4.06796" y2="59.3367" gradientUnits="userSpaceOnUse">
<stop stop-color="#FF3A44"/>
<stop offset="1" stop-color="#C31162"/>
</linearGradient>
<linearGradient id="paint3_linear_12_21758" x1="10.8528" y1="0.601487" x2="24.1653" y2="13.8883" gradientUnits="userSpaceOnUse">
<stop stop-color="#32A071"/>
<stop offset="0.069" stop-color="#2DA771"/>
<stop offset="0.476" stop-color="#15CF74"/>
<stop offset="0.801" stop-color="#06E775"/>
<stop offset="1" stop-color="#00F076"/>
</linearGradient>
</defs>
</svg>
