<svg width="38" height="39" viewBox="0 0 38 39" fill="none" xmlns="http://www.w3.org/2000/svg">
<path d="M38 19.8101C38 30.3034 29.4933 38.8101 19 38.8101C8.50668 38.8101 0 30.3034 0 19.8101C0 9.31674 8.50668 0.810059 19 0.810059C29.4933 0.810059 38 9.31674 38 19.8101ZM22.3797 19.8101C22.3796 20.706 22.0236 21.5652 21.39 22.1987C20.7564 22.8322 19.8971 23.188 19.0011 23.1879C18.1052 23.1878 17.246 22.8318 16.6125 22.1982C15.979 21.5646 15.6232 20.7053 15.6233 19.8093C15.6233 18.9133 15.9792 18.0541 16.6128 17.4206C17.2463 16.787 18.1056 16.4311 19.0015 16.4311C19.8975 16.4311 20.7567 16.787 21.3903 17.4206C22.0238 18.0541 22.3797 18.9141 22.3797 19.8101ZM24.2052 19.8101C24.2052 18.43 23.657 17.1066 22.6812 16.1307C21.7054 15.1549 20.3819 14.6067 19.0019 14.6067C17.6219 14.6067 16.2984 15.1549 15.3226 16.1307C14.3468 17.1066 13.7986 18.43 13.7986 19.8101C13.7986 21.1901 14.3468 22.5136 15.3226 23.4894C16.2984 24.4652 17.6219 25.0134 19.0019 25.0134C20.3819 25.0134 21.7054 24.4652 22.6812 23.4894C23.657 22.5136 24.2052 21.1901 24.2052 19.8101ZM25.628 14.4004C25.6279 14.0779 25.4996 13.7686 25.2715 13.5406C25.0434 13.3127 24.7341 13.1847 24.4116 13.1848C24.0891 13.1849 23.7798 13.3131 23.5518 13.5412C23.3239 13.7693 23.1959 14.0786 23.196 14.4011C23.196 14.5608 23.2275 14.7189 23.2887 14.8665C23.3498 15.014 23.4394 15.148 23.5524 15.2609C23.6653 15.3738 23.7994 15.4633 23.947 15.5243C24.0945 15.5854 24.2527 15.6168 24.4123 15.6168C24.572 15.6167 24.7301 15.5852 24.8777 15.524C25.0252 15.4629 25.1592 15.3733 25.2721 15.2603C25.3849 15.1474 25.4745 15.0133 25.5355 14.8658C25.5966 14.7182 25.628 14.5601 25.628 14.4004ZM11.8598 26.9518C11.5229 26.6252 11.2636 26.227 11.1013 25.7867C10.9622 25.4295 10.7973 24.8929 10.7525 23.9049C10.7038 22.8371 10.694 22.5157 10.694 19.8101C10.694 17.1045 10.7046 16.7837 10.7525 15.7152C10.7981 14.7272 10.963 14.1906 11.1021 13.8334C11.2647 13.3932 11.5236 12.9949 11.8598 12.6676C12.214 12.3134 12.5514 12.093 13.0249 11.9099C13.3821 11.7708 13.9186 11.6059 14.9066 11.5603C15.9752 11.5116 16.2959 11.5017 19.0015 11.5017C21.7071 11.5017 22.0278 11.5124 23.0964 11.561C24.0844 11.6059 24.621 11.7715 24.9782 11.9099C25.4516 12.0923 25.7891 12.3127 26.144 12.6676C26.4982 13.0217 26.7178 13.3599 26.9017 13.8334C27.0416 14.1906 27.2057 14.7272 27.2513 15.7152C27.3 16.7837 27.3098 17.1037 27.3098 19.8101C27.3098 22.5157 27.3 22.8364 27.2506 23.9049C27.2057 24.8929 27.04 25.4303 26.9017 25.7867C26.7393 26.2268 26.4804 26.6248 26.144 26.9518C25.8168 27.2882 25.4184 27.5471 24.9782 27.7095C24.621 27.8486 24.0844 28.0135 23.0964 28.0583C22.0286 28.1077 21.7079 28.1169 19.0015 28.1169C16.2959 28.1169 15.9752 28.107 14.9066 28.0583C13.9186 28.0127 13.3821 27.8486 13.0249 27.7095C12.585 27.5468 12.1869 27.2879 11.8598 26.9518ZM10.5686 11.3779C10.0529 11.8837 9.65395 12.4961 9.39968 13.1722C9.14888 13.8167 8.97788 14.5531 8.92848 15.6323C8.87908 16.7123 8.86768 17.0581 8.86768 19.8101C8.86768 22.5613 8.87908 22.9071 8.92848 23.9878C8.97788 25.067 9.14888 25.8034 9.39968 26.4471C9.65808 27.1137 10.0046 27.6791 10.5686 28.2423C11.0749 28.7577 11.6875 29.1566 12.3637 29.4111C13.0089 29.6619 13.7446 29.8329 14.8238 29.8823C15.9045 29.931 16.2496 29.9431 19.0015 29.9431C21.7542 29.9431 22.0985 29.9317 23.1792 29.8823C24.2584 29.8329 24.9949 29.6619 25.6394 29.4111C26.3154 29.1562 26.9279 28.7574 27.4345 28.2423C27.9498 27.7358 28.3487 27.1233 28.6034 26.4471C28.8542 25.8034 29.0252 25.0662 29.0738 23.9878C29.1232 22.9063 29.1346 22.562 29.1346 19.8101C29.1346 17.0581 29.1232 16.7123 29.0738 15.6323C29.0244 14.5531 28.8534 13.8167 28.6026 13.1722C28.3478 12.4965 27.9493 11.8843 27.4345 11.3779C26.9284 10.8625 26.3161 10.4636 25.6401 10.209C24.9949 9.95818 24.2584 9.78642 23.18 9.73778C22.0993 9.68914 21.7542 9.67698 19.0023 9.67698C16.2496 9.67698 15.9045 9.68838 14.8238 9.73778C13.7446 9.78718 13.0074 9.95818 12.3637 10.209C11.6972 10.4674 11.1325 10.8147 10.5686 11.3779Z" fill="#89A4FF"/>
</svg>
