<svg width="39" height="39" viewBox="0 0 39 39" fill="none" xmlns="http://www.w3.org/2000/svg">
<path d="M38.987 19.8101C38.987 30.3034 30.4803 38.8101 19.987 38.8101C9.4937 38.8101 0.987022 30.3034 0.987022 19.8101C0.987022 9.31674 9.4937 0.810059 19.987 0.810059C30.4803 0.810059 38.987 9.31674 38.987 19.8101Z" fill="#89A4FF"/>
<path d="M24.7511 26.5957H28.1231L28.1245 20.6282C28.1245 17.6986 27.4943 15.4467 24.0768 15.4467C22.7702 15.3981 21.543 16.0733 20.8829 17.2039H20.8376V15.7173H17.6005V26.5953H20.9725V21.214C20.9725 19.795 21.2412 18.4206 22.9974 18.4206C24.7287 18.4206 24.7511 20.0444 24.7511 21.3058V26.5957Z" fill="white"/>
<path d="M11.8388 12.2705C11.839 13.3531 12.7152 14.2305 13.7959 14.2303C14.3149 14.2302 14.8125 14.0236 15.1794 13.656C15.5463 13.2883 15.7524 12.7897 15.7523 12.2698C15.7521 11.1872 14.8759 10.3097 13.7952 10.3099C12.7145 10.3101 11.8386 11.1879 11.8388 12.2705Z" fill="white"/>
<path d="M12.1064 26.5957H15.4818V15.7173H12.1064V26.5957Z" fill="white"/>
</svg>
