<svg width="17" height="17" viewBox="0 0 17 17" fill="none" xmlns="http://www.w3.org/2000/svg">
<rect width="16.7858" height="16.7858" rx="2.68573" fill="#EA915E"/>
<path d="M8.74877 13.3775L8.97899 13.8213L8.97899 13.8213L8.74877 13.3775ZM8.25123 13.3775L8.02101 13.8213L8.02101 13.8213L8.25123 13.3775ZM12.375 7.875C12.375 9.26141 11.669 10.3976 10.8044 11.2696C9.94024 12.1413 8.95954 12.7049 8.51856 12.9336L8.97899 13.8213C9.46484 13.5693 10.5473 12.9493 11.5145 11.9737C12.4813 10.9985 13.375 9.6238 13.375 7.875H12.375ZM8.5 4C10.6401 4 12.375 5.7349 12.375 7.875H13.375C13.375 5.18261 11.1924 3 8.5 3V4ZM4.625 7.875C4.625 5.7349 6.3599 4 8.5 4V3C5.80761 3 3.625 5.18261 3.625 7.875H4.625ZM8.48144 12.9336C8.04046 12.7049 7.05976 12.1413 6.19562 11.2696C5.33102 10.3976 4.625 9.26141 4.625 7.875H3.625C3.625 9.6238 4.51867 10.9985 5.48548 11.9737C6.45275 12.9493 7.53516 13.5693 8.02101 13.8213L8.48144 12.9336ZM8.51856 12.9336C8.50965 12.9383 8.5036 12.939 8.5 12.939C8.4964 12.939 8.49035 12.9383 8.48144 12.9336L8.02101 13.8213C8.3234 13.9782 8.6766 13.9782 8.97899 13.8213L8.51856 12.9336ZM9.875 7.875C9.875 8.63439 9.25939 9.25 8.5 9.25V10.25C9.81168 10.25 10.875 9.18668 10.875 7.875H9.875ZM8.5 6.5C9.25939 6.5 9.875 7.11561 9.875 7.875H10.875C10.875 6.56332 9.81168 5.5 8.5 5.5V6.5ZM7.125 7.875C7.125 7.11561 7.74061 6.5 8.5 6.5V5.5C7.18832 5.5 6.125 6.56332 6.125 7.875H7.125ZM8.5 9.25C7.74061 9.25 7.125 8.63439 7.125 7.875H6.125C6.125 9.18668 7.18832 10.25 8.5 10.25V9.25Z" fill="white"/>
</svg>
