<svg width="20" height="20" viewBox="0 0 20 20" fill="none" xmlns="http://www.w3.org/2000/svg">
<circle cx="9.605" cy="9.605" r="9.605" fill="#A1B6FF" fill-opacity="0.85"/>
<path d="M12.0439 11.048C12.2516 11.1255 13.3414 11.653 13.5627 11.7709V11.8019C13.7841 11.9105 13.9305 11.9663 13.985 12.0563C14.031 12.3885 13.9707 12.7257 13.8113 13.0274C13.6104 13.5083 12.6603 13.9582 12.2482 13.9582C11.8362 13.9582 11.8192 14.2405 9.56139 13.3377C7.30361 12.4348 5.94146 10.2568 5.83589 10.1017C5.73032 9.94657 4.96071 8.94134 5.00157 7.9299C5.00668 7.60947 5.08467 7.29348 5.23062 7.00191C5.37657 6.71033 5.58731 6.4495 5.84951 6.23589C5.92808 6.15993 6.02317 6.09973 6.12872 6.05913C6.23426 6.01853 6.34793 5.99842 6.46248 6.0001C6.61232 6.0063 6.76556 6.02492 6.89497 6.03112C7.02437 6.03733 7.21848 5.97217 7.38875 6.39102C7.55902 6.80987 7.96766 7.83682 8.01875 7.94231C8.05245 7.99731 8.07014 8.05926 8.07014 8.12226C8.07014 8.18525 8.05245 8.2472 8.01875 8.30221C7.9588 8.42447 7.87838 8.5375 7.78037 8.63728C7.67821 8.75208 7.55561 8.87929 7.43983 8.98477C7.32405 9.09026 7.20145 9.19265 7.32405 9.40052C7.64085 9.94153 8.04491 10.4362 8.52274 10.868C9.03982 11.3196 9.63897 11.6859 10.2935 11.9508C10.5149 12.0594 10.6477 12.0501 10.7839 11.9167C10.9201 11.7833 11.3628 11.3365 11.5331 11.1349C11.7034 10.9332 11.8362 10.9704 12.0439 11.048Z" fill="white"/>
</svg>
