<svg width="12" height="15" viewBox="0 0 12 15" fill="none" xmlns="http://www.w3.org/2000/svg">
<path d="M6.10934 14.8821C5.06164 13.9971 4.09051 13.0269 3.20612 11.9817C1.87895 10.412 0.302918 8.07426 0.302918 5.84661C0.301742 3.52004 1.71657 1.42204 3.88719 0.531648C6.05781 -0.358747 8.55638 0.13396 10.217 1.77985C11.3089 2.85639 11.9207 4.32077 11.9158 5.84661C11.9158 8.07426 10.3397 10.412 9.01255 11.9817C8.12815 13.0269 7.15705 13.9971 6.10934 14.8821ZM6.10934 3.3824C5.2203 3.3824 4.39879 3.8521 3.95426 4.61451C3.50975 5.37694 3.50975 6.31631 3.95426 7.07872C4.39879 7.84115 5.2203 8.31082 6.10934 8.31082C7.48368 8.31082 8.5978 7.20757 8.5978 5.84661C8.5978 4.48568 7.48368 3.3824 6.10934 3.3824Z" fill="#F51047"/>
</svg>
