<svg width="39" height="39" viewBox="0 0 39 39" fill="none" xmlns="http://www.w3.org/2000/svg">
<path d="M38.9797 19.8101C38.9797 30.3034 30.473 38.8101 19.9797 38.8101C9.48639 38.8101 0.979706 30.3034 0.979706 19.8101C0.979706 9.31674 9.48639 0.810059 19.9797 0.810059C30.473 0.810059 38.9797 9.31674 38.9797 19.8101Z" fill="#89A4FF"/>
<path fill-rule="evenodd" clip-rule="evenodd" d="M9.09191 18.6779C14.4724 16.3796 18.0602 14.8644 19.8554 14.1324C24.9811 12.0422 26.0461 11.6791 26.7403 11.6671C26.893 11.6645 27.2344 11.7016 27.4555 11.8775C27.6422 12.026 27.6936 12.2267 27.7182 12.3675C27.7428 12.5084 27.7734 12.8292 27.749 13.0799C27.4713 15.9412 26.2694 22.8848 25.658 26.0895C25.3993 27.4455 24.8898 27.9001 24.3966 27.9446C23.3248 28.0413 22.5109 27.2502 21.4728 26.583C19.8484 25.539 18.9307 24.8892 17.3539 23.8704C15.5317 22.6931 16.713 22.046 17.7515 20.9885C18.0232 20.7118 22.7457 16.5005 22.8371 16.1184C22.8485 16.0707 22.8591 15.8926 22.7512 15.7985C22.6433 15.7045 22.484 15.7366 22.3691 15.7622C22.2061 15.7985 19.6111 17.4801 14.5839 20.8071C13.8473 21.303 13.1801 21.5446 12.5824 21.532C11.9234 21.518 10.6557 21.1667 9.71335 20.8663C8.5575 20.498 7.63885 20.3032 7.71885 19.6776C7.76051 19.3518 8.2182 19.0185 9.09191 18.6779Z" fill="white"/>
</svg>
