<svg width="15" height="12" viewBox="0 0 15 12" fill="none" xmlns="http://www.w3.org/2000/svg">
<path fill-rule="evenodd" clip-rule="evenodd" d="M13 1.3H2C1.6134 1.3 1.3 1.6134 1.3 2V3H13.7V2C13.7 1.6134 13.3866 1.3 13 1.3ZM1.3 10V4.5H13.7V10C13.7 10.3866 13.3866 10.7 13 10.7H2C1.6134 10.7 1.3 10.3866 1.3 10ZM2 0C0.895431 0 0 0.895431 0 2V10C0 11.1046 0.89543 12 2 12H13C14.1046 12 15 11.1046 15 10V2C15 0.895431 14.1046 0 13 0H2ZM3.99999 6C3.4477 6 2.99999 6.44772 2.99999 7V7.18182C2.99999 7.7341 3.4477 8.18182 3.99999 8.18182H4.99999C5.55227 8.18182 5.99999 7.7341 5.99999 7.18182V7C5.99999 6.44772 5.55227 6 4.99999 6H3.99999Z" fill="#F51047"/>
</svg>
