<svg width="28" height="28" viewBox="0 0 28 28" fill="none" xmlns="http://www.w3.org/2000/svg">
<path d="M13.605 27.21C21.1189 27.21 27.21 21.1188 27.21 13.605C27.21 6.09117 21.1189 0 13.605 0C6.09117 0 0 6.09117 0 13.605C0 21.1188 6.09117 27.21 13.605 27.21Z" fill="#30BF39" fill-opacity="0.8"/>
<path fill-rule="evenodd" clip-rule="evenodd" d="M17.4741 15.004C17.2835 14.8926 16.345 14.394 16.1661 14.3207C15.9872 14.2474 15.8728 14.2122 15.7262 14.4028C15.5796 14.5934 15.1983 15.0157 15.081 15.1418C14.9637 15.268 14.8493 15.2768 14.6587 15.1741C14.095 14.9237 13.579 14.5774 13.1337 14.1506C12.7221 13.7424 12.3742 13.2748 12.1013 12.7634C11.9957 12.5669 12.1013 12.4701 12.201 12.3704C12.3008 12.2707 12.4063 12.1504 12.4943 12.0419C12.5787 11.9476 12.648 11.8408 12.6996 11.7252C12.7286 11.6732 12.7439 11.6146 12.7439 11.5551C12.7439 11.4956 12.7286 11.437 12.6996 11.385C12.6556 11.2853 12.3037 10.3145 12.157 9.91862C12.0104 9.5227 11.8432 9.58429 11.7318 9.57843C11.6204 9.57256 11.4884 9.55496 11.3593 9.5491C11.2607 9.54752 11.1628 9.56652 11.0719 9.6049C10.981 9.64328 10.8991 9.70018 10.8314 9.77199C10.6056 9.9739 10.4241 10.2205 10.2985 10.4961C10.1728 10.7717 10.1056 11.0704 10.1012 11.3733C10.066 12.3293 10.7288 13.2796 10.8197 13.4262C10.9106 13.5728 12.0837 15.6316 14.0281 16.485C15.9726 17.3385 15.9872 17.0716 16.3421 17.0716C16.6969 17.0716 17.5152 16.6464 17.6882 16.1918C17.8255 15.9066 17.8774 15.5878 17.8378 15.2738C17.7909 15.1888 17.6647 15.136 17.4741 15.0333V15.004ZM13.905 19.6114C12.6646 19.6127 11.4514 19.2474 10.4179 18.5614L7.98375 19.3415L8.77559 16.9953C7.94259 15.8433 7.52156 14.4443 7.58029 13.0239C7.63902 11.6034 8.17409 10.244 9.09934 9.1646C10.0246 8.0852 11.2862 7.34859 12.681 7.07338C14.0758 6.79817 15.5226 7.00038 16.7885 7.64745C18.0544 8.29452 19.0657 9.34878 19.6596 10.6405C20.2535 11.9322 20.3953 13.3862 20.0624 14.7684C19.7294 16.1505 18.941 17.3804 17.824 18.26C16.7071 19.1395 15.3267 19.6176 13.905 19.6172V19.6114ZM13.905 5.66027C12.558 5.66415 11.236 6.02479 10.0736 6.70549C8.91127 7.3862 7.94996 8.36267 7.28753 9.53555C6.62511 10.7084 6.2852 12.0359 6.3024 13.3828C6.31961 14.7297 6.6933 16.048 7.38547 17.2036L6.01001 21.2889L10.2244 19.9398C11.2428 20.5096 12.3785 20.838 13.5439 20.8998C14.7093 20.9615 15.8734 20.7549 16.9463 20.2959C18.0193 19.8369 18.9726 19.1377 19.7328 18.2522C20.493 17.3668 21.0398 16.3186 21.3311 15.1885C21.6224 14.0584 21.6504 12.8765 21.4129 11.7339C21.1755 10.5913 20.6789 9.51839 19.9615 8.5979C19.2441 7.67742 18.325 6.93389 17.275 6.42458C16.2249 5.91528 15.072 5.6538 13.905 5.66027Z" fill="white"/>
</svg>
